<?xml version="1.0" encoding="utf-8" standalone="no"?>
<!DOCTYPE svg PUBLIC "-//W3C//DTD SVG 1.1//EN"
  "http://www.w3.org/Graphics/SVG/1.1/DTD/svg11.dtd">
<svg xmlns:xlink="http://www.w3.org/1999/xlink" width="504pt" height="328.392pt" viewBox="0 0 504 328.392" xmlns="http://www.w3.org/2000/svg" version="1.1">
 <metadata>
  <rdf:RDF xmlns:dc="http://purl.org/dc/elements/1.1/" xmlns:cc="http://creativecommons.org/ns#" xmlns:rdf="http://www.w3.org/1999/02/22-rdf-syntax-ns#">
   <cc:Work>
    <dc:type rdf:resource="http://purl.org/dc/dcmitype/StillImage"/>
    <dc:date>2026-10-10T16:56:14.320102</dc:date>
    <dc:format>image/svg+xml</dc:format>
    <dc:creator>
     <cc:Agent>
      <dc:title>Matplotlib v3.9.2, https://matplotlib.org/</dc:title>
     </cc:Agent>
    </dc:creator>
   </cc:Work>
  </rdf:RDF>
 </metadata>
 <defs>
  <style type="text/css">*{stroke-linejoin: round; stroke-linecap: butt}</style>
 </defs>
 <g id="figure_1">
  <g id="patch_1">
   <path d="M 0 328.392 
L 504 328.392 
L 504 0 
L 0 0 
z
" style="fill: #ffffff"/>
  </g>
  <g id="axes_1">
   <g id="patch_2">
    <path d="M 42.048 133.56 
L 237.838558 133.56 
L 237.838558 54.36 
L 42.048 54.36 
z
" style="fill: #ffffff"/>
   </g>
   <g id="matplotlib.axis_1">
    <g id="xtick_1">
     <g id="line2d_1">
      <path d="M 50.947571 133.56 
L 50.947571 54.36 
" clip-path="url(#p4b11baa3c7)" style="fill: none; stroke: #cccccc; stroke-width: 0.8; stroke-linecap: round"/>
     </g>
     <g id="line2d_2"/>
     <g id="text_1">
      <text style="fill: #262626; font: 6.5px 'DejaVu Sans'" transform="translate(42.778726 145.663341) rotate(-30)">R0</text>
     </g>
    </g>
    <g id="xtick_2">
     <g id="line2d_3">
      <path d="M 80.612807 133.56 
L 80.612807 54.36 
" clip-path="url(#p4b11baa3c7)" style="fill: none; stroke: #cccccc; stroke-width: 0.8; stroke-linecap: round"/>
     </g>
     <g id="line2d_4"/>
     <g id="text_2">
      <text style="fill: #262626; font: 6.5px 'DejaVu Sans'" transform="translate(72.443962 145.663341) rotate(-30)">R2</text>
     </g>
    </g>
    <g id="xtick_3">
     <g id="line2d_5">
      <path d="M 110.278043 133.56 
L 110.278043 54.36 
" clip-path="url(#p4b11baa3c7)" style="fill: none; stroke: #cccccc; stroke-width: 0.8; stroke-linecap: round"/>
     </g>
     <g id="line2d_6"/>
     <g id="text_3">
      <text style="fill: #262626; font: 6.5px 'DejaVu Sans'" transform="translate(95.27416 149.609552) rotate(-30)">NG-A</text>
     </g>
    </g>
    <g id="xtick_4">
     <g id="line2d_7">
      <path d="M 139.943279 133.56 
L 139.943279 54.36 
" clip-path="url(#p4b11baa3c7)" style="fill: none; stroke: #cccccc; stroke-width: 0.8; stroke-linecap: round"/>
     </g>
     <g id="line2d_8"/>
     <g id="text_4">
      <text style="fill: #262626; font: 6.5px 'DejaVu Sans'" transform="translate(124.7327 149.728888) rotate(-30)">NG-C</text>
     </g>
    </g>
    <g id="xtick_5">
     <g id="line2d_9">
      <path d="M 169.608515 133.56 
L 169.608515 54.36 
" clip-path="url(#p4b11baa3c7)" style="fill: none; stroke: #cccccc; stroke-width: 0.8; stroke-linecap: round"/>
     </g>
     <g id="line2d_10"/>
     <g id="text_5">
      <text style="fill: #262626; font: 6.5px 'DejaVu Sans'" transform="translate(158.815951 147.178145) rotate(-30)">G-A</text>
     </g>
    </g>
    <g id="xtick_6">
     <g id="line2d_11">
      <path d="M 199.273751 133.56 
L 199.273751 54.36 
" clip-path="url(#p4b11baa3c7)" style="fill: none; stroke: #cccccc; stroke-width: 0.8; stroke-linecap: round"/>
     </g>
     <g id="line2d_12"/>
     <g id="text_6">
      <text style="fill: #262626; font: 6.5px 'DejaVu Sans'" transform="translate(188.274492 147.297481) rotate(-30)">G-C</text>
     </g>
    </g>
    <g id="xtick_7">
     <g id="line2d_13">
      <path d="M 228.938987 133.56 
L 228.938987 54.36 
" clip-path="url(#p4b11baa3c7)" style="fill: none; stroke: #cccccc; stroke-width: 0.8; stroke-linecap: round"/>
     </g>
     <g id="line2d_14"/>
     <g id="text_7">
      <text style="fill: #262626; font: 6.5px 'DejaVu Sans'" transform="translate(206.840597 153.705567) rotate(-30)">M-NG-C</text>
     </g>
    </g>
   </g>
   <g id="matplotlib.axis_2">
    <g id="ytick_1">
     <g id="line2d_15">
      <path d="M 42.048 124.379671 
L 237.838558 124.379671 
" clip-path="url(#p4b11baa3c7)" style="fill: none; stroke: #cccccc; stroke-opacity: 0.17; stroke-width: 0.8; stroke-linecap: round"/>
     </g>
     <g id="line2d_16"/>
     <g id="text_8">
      <text style="fill: #262626; font: 6.5px 'DejaVu Sans'; text-anchor: end" x="38.548" y="126.849163" transform="rotate(-0 38.548 126.849163)">2.60</text>
     </g>
    </g>
    <g id="ytick_2">
     <g id="line2d_17">
      <path d="M 42.048 100.833927 
L 237.838558 100.833927 
" clip-path="url(#p4b11baa3c7)" style="fill: none; stroke: #cccccc; stroke-opacity: 0.17; stroke-width: 0.8; stroke-linecap: round"/>
     </g>
     <g id="line2d_18"/>
     <g id="text_9">
      <text style="fill: #262626; font: 6.5px 'DejaVu Sans'; text-anchor: end" x="38.548" y="103.303419" transform="rotate(-0 38.548 103.303419)">2.65</text>
     </g>
    </g>
    <g id="ytick_3">
     <g id="line2d_19">
      <path d="M 42.048 77.288183 
L 237.838558 77.288183 
" clip-path="url(#p4b11baa3c7)" style="fill: none; stroke: #cccccc; stroke-opacity: 0.17; stroke-width: 0.8; stroke-linecap: round"/>
     </g>
     <g id="line2d_20"/>
     <g id="text_10">
      <text style="fill: #262626; font: 6.5px 'DejaVu Sans'; text-anchor: end" x="38.548" y="79.757675" transform="rotate(-0 38.548 79.757675)">2.70</text>
     </g>
    </g>
    <g id="text_11">
     <text style="fill: #262626; font: 7px 'DejaVu Sans'; text-anchor: middle" x="18.619563" y="93.96" transform="rotate(-90 18.619563 93.96)">Top1FDE (m)</text>
    </g>
   </g>
   <g id="line2d_21">
    <path d="M 50.947571 62.551577 
L 80.612807 77.776916 
L 110.278043 57.96 
L 139.943279 101.572621 
L 169.608515 67.779406 
L 199.273751 129.96 
L 228.938987 116.754741 
" clip-path="url(#p4b11baa3c7)" style="fill: none; stroke: #ccd0d4; stroke-width: 0.8; stroke-linecap: round"/>
   </g>
   <g id="patch_3">
    <path d="M 42.048 133.56 
L 42.048 54.36 
" style="fill: none; stroke: #cccccc; stroke-width: 0.6; stroke-linejoin: miter; stroke-linecap: square"/>
   </g>
   <g id="patch_4">
    <path d="M 42.048 133.56 
L 237.838558 133.56 
" style="fill: none; stroke: #cccccc; stroke-width: 0.6; stroke-linejoin: miter; stroke-linecap: square"/>
   </g>
   <g id="PathCollection_1">
    <defs>
     <path id="mf536cf0774" d="M 0 2.345208 
C 0.621956 2.345208 1.218523 2.098102 1.658312 1.658312 
C 2.098102 1.218523 2.345208 0.621956 2.345208 0 
C 2.345208 -0.621956 2.098102 -1.218523 1.658312 -1.658312 
C 1.218523 -2.098102 0.621956 -2.345208 0 -2.345208 
C -0.621956 -2.345208 -1.218523 -2.098102 -1.658312 -1.658312 
C -2.098102 -1.218523 -2.345208 -0.621956 -2.345208 0 
C -2.345208 0.621956 -2.098102 1.218523 -1.658312 1.658312 
C -1.218523 2.098102 -0.621956 2.345208 0 2.345208 
z
" style="stroke: #8b8e94"/>
    </defs>
    <g clip-path="url(#p4b11baa3c7)">
     <use xlink:href="#mf536cf0774" x="50.947571" y="62.551577" style="fill: #8b8e94; stroke: #8b8e94"/>
    </g>
   </g>
   <g id="PathCollection_2">
    <defs>
     <path id="m10284d2df9" d="M 0 2.345208 
C 0.621956 2.345208 1.218523 2.098102 1.658312 1.658312 
C 2.098102 1.218523 2.345208 0.621956 2.345208 0 
C 2.345208 -0.621956 2.098102 -1.218523 1.658312 -1.658312 
C 1.218523 -2.098102 0.621956 -2.345208 0 -2.345208 
C -0.621956 -2.345208 -1.218523 -2.098102 -1.658312 -1.658312 
C -2.098102 -1.218523 -2.345208 -0.621956 -2.345208 0 
C -2.345208 0.621956 -2.098102 1.218523 -1.658312 1.658312 
C -1.218523 2.098102 -0.621956 2.345208 0 2.345208 
z
" style="stroke: #595f68"/>
    </defs>
    <g clip-path="url(#p4b11baa3c7)">
     <use xlink:href="#m10284d2df9" x="80.612807" y="77.776916" style="fill: #595f68; stroke: #595f68"/>
    </g>
   </g>
   <g id="PathCollection_3">
    <defs>
     <path id="ma848dd48b8" d="M 0 2.345208 
C 0.621956 2.345208 1.218523 2.098102 1.658312 1.658312 
C 2.098102 1.218523 2.345208 0.621956 2.345208 0 
C 2.345208 -0.621956 2.098102 -1.218523 1.658312 -1.658312 
C 1.218523 -2.098102 0.621956 -2.345208 0 -2.345208 
C -0.621956 -2.345208 -1.218523 -2.098102 -1.658312 -1.658312 
C -2.098102 -1.218523 -2.345208 -0.621956 -2.345208 0 
C -2.345208 0.621956 -2.098102 1.218523 -1.658312 1.658312 
C -1.218523 2.098102 -0.621956 2.345208 0 2.345208 
z
" style="stroke: #a1afcc"/>
    </defs>
    <g clip-path="url(#p4b11baa3c7)">
     <use xlink:href="#ma848dd48b8" x="110.278043" y="57.96" style="fill: #a1afcc; stroke: #a1afcc"/>
    </g>
   </g>
   <g id="PathCollection_4">
    <defs>
     <path id="m9d8b3fd391" d="M 0 2.345208 
C 0.621956 2.345208 1.218523 2.098102 1.658312 1.658312 
C 2.098102 1.218523 2.345208 0.621956 2.345208 0 
C 2.345208 -0.621956 2.098102 -1.218523 1.658312 -1.658312 
C 1.218523 -2.098102 0.621956 -2.345208 0 -2.345208 
C -0.621956 -2.345208 -1.218523 -2.098102 -1.658312 -1.658312 
C -2.098102 -1.218523 -2.345208 -0.621956 -2.345208 0 
C -2.345208 0.621956 -2.098102 1.218523 -1.658312 1.658312 
C -1.218523 2.098102 -0.621956 2.345208 0 2.345208 
z
" style="stroke: #596fad"/>
    </defs>
    <g clip-path="url(#p4b11baa3c7)">
     <use xlink:href="#m9d8b3fd391" x="139.943279" y="101.572621" style="fill: #596fad; stroke: #596fad"/>
    </g>
   </g>
   <g id="PathCollection_5">
    <defs>
     <path id="m76a7542d84" d="M 0 2.345208 
C 0.621956 2.345208 1.218523 2.098102 1.658312 1.658312 
C 2.098102 1.218523 2.345208 0.621956 2.345208 0 
C 2.345208 -0.621956 2.098102 -1.218523 1.658312 -1.658312 
C 1.218523 -2.098102 0.621956 -2.345208 0 -2.345208 
C -0.621956 -2.345208 -1.218523 -2.098102 -1.658312 -1.658312 
C -2.098102 -1.218523 -2.345208 -0.621956 -2.345208 0 
C -2.345208 0.621956 -2.098102 1.218523 -1.658312 1.658312 
C -1.218523 2.098102 -0.621956 2.345208 0 2.345208 
z
" style="stroke: #9ebfb2"/>
    </defs>
    <g clip-path="url(#p4b11baa3c7)">
     <use xlink:href="#m76a7542d84" x="169.608515" y="67.779406" style="fill: #9ebfb2; stroke: #9ebfb2"/>
    </g>
   </g>
   <g id="PathCollection_6">
    <defs>
     <path id="md6d6296f75" d="M 0 2.345208 
C 0.621956 2.345208 1.218523 2.098102 1.658312 1.658312 
C 2.098102 1.218523 2.345208 0.621956 2.345208 0 
C 2.345208 -0.621956 2.098102 -1.218523 1.658312 -1.658312 
C 1.218523 -2.098102 0.621956 -2.345208 0 -2.345208 
C -0.621956 -2.345208 -1.218523 -2.098102 -1.658312 -1.658312 
C -2.098102 -1.218523 -2.345208 -0.621956 -2.345208 0 
C -2.345208 0.621956 -2.098102 1.218523 -1.658312 1.658312 
C -1.218523 2.098102 -0.621956 2.345208 0 2.345208 
z
" style="stroke: #287d6f"/>
    </defs>
    <g clip-path="url(#p4b11baa3c7)">
     <use xlink:href="#md6d6296f75" x="199.273751" y="129.96" style="fill: #287d6f; stroke: #287d6f"/>
    </g>
   </g>
   <g id="PathCollection_7">
    <defs>
     <path id="m07a0065762" d="M 0 2.345208 
C 0.621956 2.345208 1.218523 2.098102 1.658312 1.658312 
C 2.098102 1.218523 2.345208 0.621956 2.345208 0 
C 2.345208 -0.621956 2.098102 -1.218523 1.658312 -1.658312 
C 1.218523 -2.098102 0.621956 -2.345208 0 -2.345208 
C -0.621956 -2.345208 -1.218523 -2.098102 -1.658312 -1.658312 
C -2.098102 -1.218523 -2.345208 -0.621956 -2.345208 0 
C -2.345208 0.621956 -2.098102 1.218523 -1.658312 1.658312 
C -1.218523 2.098102 -0.621956 2.345208 0 2.345208 
z
" style="stroke: #b3836b"/>
    </defs>
    <g clip-path="url(#p4b11baa3c7)">
     <use xlink:href="#m07a0065762" x="228.938987" y="116.754741" style="fill: #b3836b; stroke: #b3836b"/>
    </g>
   </g>
   <g id="text_12">
    <text style="fill: #262626; font: 7.3px 'DejaVu Sans'; text-anchor: start" x="42.048" y="48.36" transform="rotate(-0 42.048 48.36)">a  Vehicle: n=191,026, scenes=629</text>
   </g>
  </g>
  <g id="axes_2">
   <g id="patch_5">
    <path d="M 302.449442 133.56 
L 498.24 133.56 
L 498.24 54.36 
L 302.449442 54.36 
z
" style="fill: #ffffff"/>
   </g>
   <g id="matplotlib.axis_3">
    <g id="xtick_8">
     <g id="line2d_22">
      <path d="M 311.349013 133.56 
L 311.349013 54.36 
" clip-path="url(#p459271e792)" style="fill: none; stroke: #cccccc; stroke-width: 0.8; stroke-linecap: round"/>
     </g>
     <g id="line2d_23"/>
     <g id="text_13">
      <text style="fill: #262626; font: 6.5px 'DejaVu Sans'" transform="translate(303.180168 145.663341) rotate(-30)">R0</text>
     </g>
    </g>
    <g id="xtick_9">
     <g id="line2d_24">
      <path d="M 341.014249 133.56 
L 341.014249 54.36 
" clip-path="url(#p459271e792)" style="fill: none; stroke: #cccccc; stroke-width: 0.8; stroke-linecap: round"/>
     </g>
     <g id="line2d_25"/>
     <g id="text_14">
      <text style="fill: #262626; font: 6.5px 'DejaVu Sans'" transform="translate(332.845404 145.663341) rotate(-30)">R2</text>
     </g>
    </g>
    <g id="xtick_10">
     <g id="line2d_26">
      <path d="M 370.679485 133.56 
L 370.679485 54.36 
" clip-path="url(#p459271e792)" style="fill: none; stroke: #cccccc; stroke-width: 0.8; stroke-linecap: round"/>
     </g>
     <g id="line2d_27"/>
     <g id="text_15">
      <text style="fill: #262626; font: 6.5px 'DejaVu Sans'" transform="translate(355.675602 149.609552) rotate(-30)">NG-A</text>
     </g>
    </g>
    <g id="xtick_11">
     <g id="line2d_28">
      <path d="M 400.344721 133.56 
L 400.344721 54.36 
" clip-path="url(#p459271e792)" style="fill: none; stroke: #cccccc; stroke-width: 0.8; stroke-linecap: round"/>
     </g>
     <g id="line2d_29"/>
     <g id="text_16">
      <text style="fill: #262626; font: 6.5px 'DejaVu Sans'" transform="translate(385.134142 149.728888) rotate(-30)">NG-C</text>
     </g>
    </g>
    <g id="xtick_12">
     <g id="line2d_30">
      <path d="M 430.009957 133.56 
L 430.009957 54.36 
" clip-path="url(#p459271e792)" style="fill: none; stroke: #cccccc; stroke-width: 0.8; stroke-linecap: round"/>
     </g>
     <g id="line2d_31"/>
     <g id="text_17">
      <text style="fill: #262626; font: 6.5px 'DejaVu Sans'" transform="translate(419.217393 147.178145) rotate(-30)">G-A</text>
     </g>
    </g>
    <g id="xtick_13">
     <g id="line2d_32">
      <path d="M 459.675193 133.56 
L 459.675193 54.36 
" clip-path="url(#p459271e792)" style="fill: none; stroke: #cccccc; stroke-width: 0.8; stroke-linecap: round"/>
     </g>
     <g id="line2d_33"/>
     <g id="text_18">
      <text style="fill: #262626; font: 6.5px 'DejaVu Sans'" transform="translate(448.675934 147.297481) rotate(-30)">G-C</text>
     </g>
    </g>
    <g id="xtick_14">
     <g id="line2d_34">
      <path d="M 489.340429 133.56 
L 489.340429 54.36 
" clip-path="url(#p459271e792)" style="fill: none; stroke: #cccccc; stroke-width: 0.8; stroke-linecap: round"/>
     </g>
     <g id="line2d_35"/>
     <g id="text_19">
      <text style="fill: #262626; font: 6.5px 'DejaVu Sans'" transform="translate(467.242039 153.705567) rotate(-30)">M-NG-C</text>
     </g>
    </g>
   </g>
   <g id="matplotlib.axis_4">
    <g id="ytick_4">
     <g id="line2d_36">
      <path d="M 302.449442 131.488286 
L 498.24 131.488286 
" clip-path="url(#p459271e792)" style="fill: none; stroke: #cccccc; stroke-opacity: 0.17; stroke-width: 0.8; stroke-linecap: round"/>
     </g>
     <g id="line2d_37"/>
     <g id="text_20">
      <text style="fill: #262626; font: 6.5px 'DejaVu Sans'; text-anchor: end" x="298.949442" y="133.957778" transform="rotate(-0 298.949442 133.957778)">1.330</text>
     </g>
    </g>
    <g id="ytick_5">
     <g id="line2d_38">
      <path d="M 302.449442 115.698058 
L 498.24 115.698058 
" clip-path="url(#p459271e792)" style="fill: none; stroke: #cccccc; stroke-opacity: 0.17; stroke-width: 0.8; stroke-linecap: round"/>
     </g>
     <g id="line2d_39"/>
     <g id="text_21">
      <text style="fill: #262626; font: 6.5px 'DejaVu Sans'; text-anchor: end" x="298.949442" y="118.16755" transform="rotate(-0 298.949442 118.16755)">1.335</text>
     </g>
    </g>
    <g id="ytick_6">
     <g id="line2d_40">
      <path d="M 302.449442 99.907831 
L 498.24 99.907831 
" clip-path="url(#p459271e792)" style="fill: none; stroke: #cccccc; stroke-opacity: 0.17; stroke-width: 0.8; stroke-linecap: round"/>
     </g>
     <g id="line2d_41"/>
     <g id="text_22">
      <text style="fill: #262626; font: 6.5px 'DejaVu Sans'; text-anchor: end" x="298.949442" y="102.377323" transform="rotate(-0 298.949442 102.377323)">1.340</text>
     </g>
    </g>
    <g id="ytick_7">
     <g id="line2d_42">
      <path d="M 302.449442 84.117604 
L 498.24 84.117604 
" clip-path="url(#p459271e792)" style="fill: none; stroke: #cccccc; stroke-opacity: 0.17; stroke-width: 0.8; stroke-linecap: round"/>
     </g>
     <g id="line2d_43"/>
     <g id="text_23">
      <text style="fill: #262626; font: 6.5px 'DejaVu Sans'; text-anchor: end" x="298.949442" y="86.587096" transform="rotate(-0 298.949442 86.587096)">1.345</text>
     </g>
    </g>
    <g id="ytick_8">
     <g id="line2d_44">
      <path d="M 302.449442 68.327377 
L 498.24 68.327377 
" clip-path="url(#p459271e792)" style="fill: none; stroke: #cccccc; stroke-opacity: 0.17; stroke-width: 0.8; stroke-linecap: round"/>
     </g>
     <g id="line2d_45"/>
     <g id="text_24">
      <text style="fill: #262626; font: 6.5px 'DejaVu Sans'; text-anchor: end" x="298.949442" y="70.796869" transform="rotate(-0 298.949442 70.796869)">1.350</text>
     </g>
    </g>
    <g id="text_25">
     <text style="fill: #262626; font: 7px 'DejaVu Sans'; text-anchor: middle" x="274.88538" y="93.96" transform="rotate(-90 274.88538 93.96)">Top1FDE (m)</text>
    </g>
   </g>
   <g id="line2d_46">
    <path d="M 311.349013 57.96 
L 341.014249 79.719321 
L 370.679485 100.737061 
L 400.344721 116.067915 
L 430.009957 86.206156 
L 459.675193 129.96 
L 489.340429 105.963699 
" clip-path="url(#p459271e792)" style="fill: none; stroke: #ccd0d4; stroke-width: 0.8; stroke-linecap: round"/>
   </g>
   <g id="patch_6">
    <path d="M 302.449442 133.56 
L 302.449442 54.36 
" style="fill: none; stroke: #cccccc; stroke-width: 0.6; stroke-linejoin: miter; stroke-linecap: square"/>
   </g>
   <g id="patch_7">
    <path d="M 302.449442 133.56 
L 498.24 133.56 
" style="fill: none; stroke: #cccccc; stroke-width: 0.6; stroke-linejoin: miter; stroke-linecap: square"/>
   </g>
   <g id="PathCollection_8">
    <g clip-path="url(#p459271e792)">
     <use xlink:href="#mf536cf0774" x="311.349013" y="57.96" style="fill: #8b8e94; stroke: #8b8e94"/>
    </g>
   </g>
   <g id="PathCollection_9">
    <g clip-path="url(#p459271e792)">
     <use xlink:href="#m10284d2df9" x="341.014249" y="79.719321" style="fill: #595f68; stroke: #595f68"/>
    </g>
   </g>
   <g id="PathCollection_10">
    <g clip-path="url(#p459271e792)">
     <use xlink:href="#ma848dd48b8" x="370.679485" y="100.737061" style="fill: #a1afcc; stroke: #a1afcc"/>
    </g>
   </g>
   <g id="PathCollection_11">
    <g clip-path="url(#p459271e792)">
     <use xlink:href="#m9d8b3fd391" x="400.344721" y="116.067915" style="fill: #596fad; stroke: #596fad"/>
    </g>
   </g>
   <g id="PathCollection_12">
    <g clip-path="url(#p459271e792)">
     <use xlink:href="#m76a7542d84" x="430.009957" y="86.206156" style="fill: #9ebfb2; stroke: #9ebfb2"/>
    </g>
   </g>
   <g id="PathCollection_13">
    <g clip-path="url(#p459271e792)">
     <use xlink:href="#md6d6296f75" x="459.675193" y="129.96" style="fill: #287d6f; stroke: #287d6f"/>
    </g>
   </g>
   <g id="PathCollection_14">
    <g clip-path="url(#p459271e792)">
     <use xlink:href="#m07a0065762" x="489.340429" y="105.963699" style="fill: #b3836b; stroke: #b3836b"/>
    </g>
   </g>
   <g id="text_26">
    <text style="fill: #262626; font: 7.3px 'DejaVu Sans'; text-anchor: start" x="302.449442" y="48.36" transform="rotate(-0 302.449442 48.36)">b  Pedestrian: n=66,145, scenes=542</text>
   </g>
  </g>
  <g id="axes_3">
   <g id="patch_8">
    <path d="M 42.048 268.2 
L 237.838558 268.2 
L 237.838558 189 
L 42.048 189 
z
" style="fill: #ffffff"/>
   </g>
   <g id="matplotlib.axis_5">
    <g id="xtick_15">
     <g id="line2d_47">
      <path d="M 50.947571 268.2 
L 50.947571 189 
" clip-path="url(#pfbd105541f)" style="fill: none; stroke: #cccccc; stroke-width: 0.8; stroke-linecap: round"/>
     </g>
     <g id="line2d_48"/>
     <g id="text_27">
      <text style="fill: #262626; font: 6.5px 'DejaVu Sans'" transform="translate(42.778726 280.303341) rotate(-30)">R0</text>
     </g>
    </g>
    <g id="xtick_16">
     <g id="line2d_49">
      <path d="M 80.612807 268.2 
L 80.612807 189 
" clip-path="url(#pfbd105541f)" style="fill: none; stroke: #cccccc; stroke-width: 0.8; stroke-linecap: round"/>
     </g>
     <g id="line2d_50"/>
     <g id="text_28">
      <text style="fill: #262626; font: 6.5px 'DejaVu Sans'" transform="translate(72.443962 280.303341) rotate(-30)">R2</text>
     </g>
    </g>
    <g id="xtick_17">
     <g id="line2d_51">
      <path d="M 110.278043 268.2 
L 110.278043 189 
" clip-path="url(#pfbd105541f)" style="fill: none; stroke: #cccccc; stroke-width: 0.8; stroke-linecap: round"/>
     </g>
     <g id="line2d_52"/>
     <g id="text_29">
      <text style="fill: #262626; font: 6.5px 'DejaVu Sans'" transform="translate(95.27416 284.249552) rotate(-30)">NG-A</text>
     </g>
    </g>
    <g id="xtick_18">
     <g id="line2d_53">
      <path d="M 139.943279 268.2 
L 139.943279 189 
" clip-path="url(#pfbd105541f)" style="fill: none; stroke: #cccccc; stroke-width: 0.8; stroke-linecap: round"/>
     </g>
     <g id="line2d_54"/>
     <g id="text_30">
      <text style="fill: #262626; font: 6.5px 'DejaVu Sans'" transform="translate(124.7327 284.368888) rotate(-30)">NG-C</text>
     </g>
    </g>
    <g id="xtick_19">
     <g id="line2d_55">
      <path d="M 169.608515 268.2 
L 169.608515 189 
" clip-path="url(#pfbd105541f)" style="fill: none; stroke: #cccccc; stroke-width: 0.8; stroke-linecap: round"/>
     </g>
     <g id="line2d_56"/>
     <g id="text_31">
      <text style="fill: #262626; font: 6.5px 'DejaVu Sans'" transform="translate(158.815951 281.818145) rotate(-30)">G-A</text>
     </g>
    </g>
    <g id="xtick_20">
     <g id="line2d_57">
      <path d="M 199.273751 268.2 
L 199.273751 189 
" clip-path="url(#pfbd105541f)" style="fill: none; stroke: #cccccc; stroke-width: 0.8; stroke-linecap: round"/>
     </g>
     <g id="line2d_58"/>
     <g id="text_32">
      <text style="fill: #262626; font: 6.5px 'DejaVu Sans'" transform="translate(188.274492 281.937481) rotate(-30)">G-C</text>
     </g>
    </g>
    <g id="xtick_21">
     <g id="line2d_59">
      <path d="M 228.938987 268.2 
L 228.938987 189 
" clip-path="url(#pfbd105541f)" style="fill: none; stroke: #cccccc; stroke-width: 0.8; stroke-linecap: round"/>
     </g>
     <g id="line2d_60"/>
     <g id="text_33">
      <text style="fill: #262626; font: 6.5px 'DejaVu Sans'" transform="translate(206.840597 288.345567) rotate(-30)">M-NG-C</text>
     </g>
    </g>
   </g>
   <g id="matplotlib.axis_6">
    <g id="ytick_9">
     <g id="line2d_61">
      <path d="M 42.048 262.013228 
L 237.838558 262.013228 
" clip-path="url(#pfbd105541f)" style="fill: none; stroke: #cccccc; stroke-opacity: 0.17; stroke-width: 0.8; stroke-linecap: round"/>
     </g>
     <g id="line2d_62"/>
     <g id="text_34">
      <text style="fill: #262626; font: 6.5px 'DejaVu Sans'; text-anchor: end" x="38.548" y="264.48272" transform="rotate(-0 38.548 264.48272)">1.96</text>
     </g>
    </g>
    <g id="ytick_10">
     <g id="line2d_63">
      <path d="M 42.048 237.557681 
L 237.838558 237.557681 
" clip-path="url(#pfbd105541f)" style="fill: none; stroke: #cccccc; stroke-opacity: 0.17; stroke-width: 0.8; stroke-linecap: round"/>
     </g>
     <g id="line2d_64"/>
     <g id="text_35">
      <text style="fill: #262626; font: 6.5px 'DejaVu Sans'; text-anchor: end" x="38.548" y="240.027173" transform="rotate(-0 38.548 240.027173)">1.98</text>
     </g>
    </g>
    <g id="ytick_11">
     <g id="line2d_65">
      <path d="M 42.048 213.102134 
L 237.838558 213.102134 
" clip-path="url(#pfbd105541f)" style="fill: none; stroke: #cccccc; stroke-opacity: 0.17; stroke-width: 0.8; stroke-linecap: round"/>
     </g>
     <g id="line2d_66"/>
     <g id="text_36">
      <text style="fill: #262626; font: 6.5px 'DejaVu Sans'; text-anchor: end" x="38.548" y="215.571626" transform="rotate(-0 38.548 215.571626)">2.00</text>
     </g>
    </g>
    <g id="text_37">
     <text style="fill: #262626; font: 7px 'DejaVu Sans'; text-anchor: middle" x="18.619563" y="228.6" transform="rotate(-90 18.619563 228.6)">Top1FDE (m)</text>
    </g>
   </g>
   <g id="line2d_67">
    <path d="M 50.947571 192.6 
L 80.612807 264.6 
L 110.278043 264.6 
L 139.943279 264.6 
L 169.608515 264.6 
L 199.273751 264.6 
L 228.938987 264.6 
" clip-path="url(#pfbd105541f)" style="fill: none; stroke: #ccd0d4; stroke-width: 0.8; stroke-linecap: round"/>
   </g>
   <g id="patch_9">
    <path d="M 42.048 268.2 
L 42.048 189 
" style="fill: none; stroke: #cccccc; stroke-width: 0.6; stroke-linejoin: miter; stroke-linecap: square"/>
   </g>
   <g id="patch_10">
    <path d="M 42.048 268.2 
L 237.838558 268.2 
" style="fill: none; stroke: #cccccc; stroke-width: 0.6; stroke-linejoin: miter; stroke-linecap: square"/>
   </g>
   <g id="PathCollection_15">
    <g clip-path="url(#pfbd105541f)">
     <use xlink:href="#mf536cf0774" x="50.947571" y="192.6" style="fill: #8b8e94; stroke: #8b8e94"/>
    </g>
   </g>
   <g id="PathCollection_16">
    <g clip-path="url(#pfbd105541f)">
     <use xlink:href="#m10284d2df9" x="80.612807" y="264.6" style="fill: #595f68; stroke: #595f68"/>
    </g>
   </g>
   <g id="PathCollection_17">
    <g clip-path="url(#pfbd105541f)">
     <use xlink:href="#ma848dd48b8" x="110.278043" y="264.6" style="fill: #a1afcc; stroke: #a1afcc"/>
    </g>
   </g>
   <g id="PathCollection_18">
    <g clip-path="url(#pfbd105541f)">
     <use xlink:href="#m9d8b3fd391" x="139.943279" y="264.6" style="fill: #596fad; stroke: #596fad"/>
    </g>
   </g>
   <g id="PathCollection_19">
    <g clip-path="url(#pfbd105541f)">
     <use xlink:href="#m76a7542d84" x="169.608515" y="264.6" style="fill: #9ebfb2; stroke: #9ebfb2"/>
    </g>
   </g>
   <g id="PathCollection_20">
    <g clip-path="url(#pfbd105541f)">
     <use xlink:href="#md6d6296f75" x="199.273751" y="264.6" style="fill: #287d6f; stroke: #287d6f"/>
    </g>
   </g>
   <g id="PathCollection_21">
    <g clip-path="url(#pfbd105541f)">
     <use xlink:href="#m07a0065762" x="228.938987" y="264.6" style="fill: #b3836b; stroke: #b3836b"/>
    </g>
   </g>
   <g id="text_38">
    <text style="fill: #262626; font: 6px 'DejaVu Sans'; text-anchor: end" x="231.964841" y="195.336" transform="rotate(-0 231.964841 195.336)">NG/G/Matched share R2 route</text>
   </g>
   <g id="text_39">
    <text style="fill: #262626; font: 7.3px 'DejaVu Sans'; text-anchor: start" x="42.048" y="183" transform="rotate(-0 42.048 183)">c  Bicycle: n=2,980, scenes=169</text>
   </g>
  </g>
  <g id="axes_4">
   <g id="patch_11">
    <path d="M 302.449442 268.2 
L 498.24 268.2 
L 498.24 189 
L 302.449442 189 
z
" style="fill: #ffffff"/>
   </g>
   <g id="matplotlib.axis_7">
    <g id="xtick_22">
     <g id="line2d_68">
      <path d="M 311.349013 268.2 
L 311.349013 189 
" clip-path="url(#pc273b6d95f)" style="fill: none; stroke: #cccccc; stroke-width: 0.8; stroke-linecap: round"/>
     </g>
     <g id="line2d_69"/>
     <g id="text_40">
      <text style="fill: #262626; font: 6.5px 'DejaVu Sans'" transform="translate(303.180168 280.303341) rotate(-30)">R0</text>
     </g>
    </g>
    <g id="xtick_23">
     <g id="line2d_70">
      <path d="M 341.014249 268.2 
L 341.014249 189 
" clip-path="url(#pc273b6d95f)" style="fill: none; stroke: #cccccc; stroke-width: 0.8; stroke-linecap: round"/>
     </g>
     <g id="line2d_71"/>
     <g id="text_41">
      <text style="fill: #262626; font: 6.5px 'DejaVu Sans'" transform="translate(332.845404 280.303341) rotate(-30)">R2</text>
     </g>
    </g>
    <g id="xtick_24">
     <g id="line2d_72">
      <path d="M 370.679485 268.2 
L 370.679485 189 
" clip-path="url(#pc273b6d95f)" style="fill: none; stroke: #cccccc; stroke-width: 0.8; stroke-linecap: round"/>
     </g>
     <g id="line2d_73"/>
     <g id="text_42">
      <text style="fill: #262626; font: 6.5px 'DejaVu Sans'" transform="translate(355.675602 284.249552) rotate(-30)">NG-A</text>
     </g>
    </g>
    <g id="xtick_25">
     <g id="line2d_74">
      <path d="M 400.344721 268.2 
L 400.344721 189 
" clip-path="url(#pc273b6d95f)" style="fill: none; stroke: #cccccc; stroke-width: 0.8; stroke-linecap: round"/>
     </g>
     <g id="line2d_75"/>
     <g id="text_43">
      <text style="fill: #262626; font: 6.5px 'DejaVu Sans'" transform="translate(385.134142 284.368888) rotate(-30)">NG-C</text>
     </g>
    </g>
    <g id="xtick_26">
     <g id="line2d_76">
      <path d="M 430.009957 268.2 
L 430.009957 189 
" clip-path="url(#pc273b6d95f)" style="fill: none; stroke: #cccccc; stroke-width: 0.8; stroke-linecap: round"/>
     </g>
     <g id="line2d_77"/>
     <g id="text_44">
      <text style="fill: #262626; font: 6.5px 'DejaVu Sans'" transform="translate(419.217393 281.818145) rotate(-30)">G-A</text>
     </g>
    </g>
    <g id="xtick_27">
     <g id="line2d_78">
      <path d="M 459.675193 268.2 
L 459.675193 189 
" clip-path="url(#pc273b6d95f)" style="fill: none; stroke: #cccccc; stroke-width: 0.8; stroke-linecap: round"/>
     </g>
     <g id="line2d_79"/>
     <g id="text_45">
      <text style="fill: #262626; font: 6.5px 'DejaVu Sans'" transform="translate(448.675934 281.937481) rotate(-30)">G-C</text>
     </g>
    </g>
    <g id="xtick_28">
     <g id="line2d_80">
      <path d="M 489.340429 268.2 
L 489.340429 189 
" clip-path="url(#pc273b6d95f)" style="fill: none; stroke: #cccccc; stroke-width: 0.8; stroke-linecap: round"/>
     </g>
     <g id="line2d_81"/>
     <g id="text_46">
      <text style="fill: #262626; font: 6.5px 'DejaVu Sans'" transform="translate(467.242039 288.345567) rotate(-30)">M-NG-C</text>
     </g>
    </g>
   </g>
   <g id="matplotlib.axis_8">
    <g id="ytick_12">
     <g id="line2d_82">
      <path d="M 302.449442 265.766383 
L 498.24 265.766383 
" clip-path="url(#pc273b6d95f)" style="fill: none; stroke: #cccccc; stroke-opacity: 0.17; stroke-width: 0.8; stroke-linecap: round"/>
     </g>
     <g id="line2d_83"/>
     <g id="text_47">
      <text style="fill: #262626; font: 6.5px 'DejaVu Sans'; text-anchor: end" x="298.949442" y="268.235876" transform="rotate(-0 298.949442 268.235876)">10.2</text>
     </g>
    </g>
    <g id="ytick_13">
     <g id="line2d_84">
      <path d="M 302.449442 244.0775 
L 498.24 244.0775 
" clip-path="url(#pc273b6d95f)" style="fill: none; stroke: #cccccc; stroke-opacity: 0.17; stroke-width: 0.8; stroke-linecap: round"/>
     </g>
     <g id="line2d_85"/>
     <g id="text_48">
      <text style="fill: #262626; font: 6.5px 'DejaVu Sans'; text-anchor: end" x="298.949442" y="246.546993" transform="rotate(-0 298.949442 246.546993)">10.4</text>
     </g>
    </g>
    <g id="ytick_14">
     <g id="line2d_86">
      <path d="M 302.449442 222.388617 
L 498.24 222.388617 
" clip-path="url(#pc273b6d95f)" style="fill: none; stroke: #cccccc; stroke-opacity: 0.17; stroke-width: 0.8; stroke-linecap: round"/>
     </g>
     <g id="line2d_87"/>
     <g id="text_49">
      <text style="fill: #262626; font: 6.5px 'DejaVu Sans'; text-anchor: end" x="298.949442" y="224.85811" transform="rotate(-0 298.949442 224.85811)">10.6</text>
     </g>
    </g>
    <g id="ytick_15">
     <g id="line2d_88">
      <path d="M 302.449442 200.699734 
L 498.24 200.699734 
" clip-path="url(#pc273b6d95f)" style="fill: none; stroke: #cccccc; stroke-opacity: 0.17; stroke-width: 0.8; stroke-linecap: round"/>
     </g>
     <g id="line2d_89"/>
     <g id="text_50">
      <text style="fill: #262626; font: 6.5px 'DejaVu Sans'; text-anchor: end" x="298.949442" y="203.169227" transform="rotate(-0 298.949442 203.169227)">10.8</text>
     </g>
    </g>
    <g id="text_51">
     <text style="fill: #262626; font: 7px 'DejaVu Sans'; text-anchor: middle" x="279.021005" y="228.6" transform="rotate(-90 279.021005 228.6)">Top1FDE (m)</text>
    </g>
   </g>
   <g id="line2d_90">
    <path d="M 311.349013 192.6 
L 341.014249 208.844523 
L 370.679485 193.780645 
L 400.344721 236.417924 
L 430.009957 209.943002 
L 459.675193 264.6 
L 489.340429 252.29561 
" clip-path="url(#pc273b6d95f)" style="fill: none; stroke: #ccd0d4; stroke-width: 0.8; stroke-linecap: round"/>
   </g>
   <g id="patch_12">
    <path d="M 302.449442 268.2 
L 302.449442 189 
" style="fill: none; stroke: #cccccc; stroke-width: 0.6; stroke-linejoin: miter; stroke-linecap: square"/>
   </g>
   <g id="patch_13">
    <path d="M 302.449442 268.2 
L 498.24 268.2 
" style="fill: none; stroke: #cccccc; stroke-width: 0.6; stroke-linejoin: miter; stroke-linecap: square"/>
   </g>
   <g id="PathCollection_22">
    <g clip-path="url(#pc273b6d95f)">
     <use xlink:href="#mf536cf0774" x="311.349013" y="192.6" style="fill: #8b8e94; stroke: #8b8e94"/>
    </g>
   </g>
   <g id="PathCollection_23">
    <g clip-path="url(#pc273b6d95f)">
     <use xlink:href="#m10284d2df9" x="341.014249" y="208.844523" style="fill: #595f68; stroke: #595f68"/>
    </g>
   </g>
   <g id="PathCollection_24">
    <g clip-path="url(#pc273b6d95f)">
     <use xlink:href="#ma848dd48b8" x="370.679485" y="193.780645" style="fill: #a1afcc; stroke: #a1afcc"/>
    </g>
   </g>
   <g id="PathCollection_25">
    <g clip-path="url(#pc273b6d95f)">
     <use xlink:href="#m9d8b3fd391" x="400.344721" y="236.417924" style="fill: #596fad; stroke: #596fad"/>
    </g>
   </g>
   <g id="PathCollection_26">
    <g clip-path="url(#pc273b6d95f)">
     <use xlink:href="#m76a7542d84" x="430.009957" y="209.943002" style="fill: #9ebfb2; stroke: #9ebfb2"/>
    </g>
   </g>
   <g id="PathCollection_27">
    <g clip-path="url(#pc273b6d95f)">
     <use xlink:href="#md6d6296f75" x="459.675193" y="264.6" style="fill: #287d6f; stroke: #287d6f"/>
    </g>
   </g>
   <g id="PathCollection_28">
    <g clip-path="url(#pc273b6d95f)">
     <use xlink:href="#m07a0065762" x="489.340429" y="252.29561" style="fill: #b3836b; stroke: #b3836b"/>
    </g>
   </g>
   <g id="text_52">
    <text style="fill: #262626; font: 6px 'DejaVu Sans'; text-anchor: end" x="492.366283" y="195.336" transform="rotate(-0 492.366283 195.336)">t0 vehicle.moving attribute</text>
   </g>
   <g id="text_53">
    <text style="fill: #262626; font: 7.3px 'DejaVu Sans'; text-anchor: start" x="302.449442" y="183" transform="rotate(-0 302.449442 183)">d  MovingVehicle: n=41,728, scenes=597</text>
   </g>
  </g>
  <g id="text_54">
   <text style="fill: #262626; font: 700 10px 'DejaVu Sans'; text-anchor: start" x="5.76" y="13.358437" transform="rotate(-0 5.76 13.358437)">e  Participant and motion-state groups</text>
  </g>
  <g id="text_55">
   <text style="fill: #444444; font: 5.8px 'DejaVu Sans'" transform="translate(100.220672 314.769737)">nuScenes TRAIN630 | Custom scene-isolated 3-fold CV | Fixed K6 candidates; n denotes actor windows</text>
   <text style="fill: #444444; font: 5.8px 'DejaVu Sans'" transform="translate(119.840984 321.425781)">Separate y-axis scales for group readability; lower FDE is better. M-NG-C=Matched-NG-C.</text>
  </g>
 </g>
 <defs>
  <clipPath id="p4b11baa3c7">
   <rect x="42.048" y="54.36" width="195.790558" height="79.2"/>
  </clipPath>
  <clipPath id="p459271e792">
   <rect x="302.449442" y="54.36" width="195.790558" height="79.2"/>
  </clipPath>
  <clipPath id="pfbd105541f">
   <rect x="42.048" y="189" width="195.790558" height="79.2"/>
  </clipPath>
  <clipPath id="pc273b6d95f">
   <rect x="302.449442" y="189" width="195.790558" height="79.2"/>
  </clipPath>
 </defs>
</svg>
