<?xml version="1.0" encoding="utf-8" standalone="no"?>
<!DOCTYPE svg PUBLIC "-//W3C//DTD SVG 1.1//EN"
  "http://www.w3.org/Graphics/SVG/1.1/DTD/svg11.dtd">
<svg xmlns:xlink="http://www.w3.org/1999/xlink" width="532.8pt" height="302.4pt" viewBox="0 0 532.8 302.4" xmlns="http://www.w3.org/2000/svg" version="1.1">
 <metadata>
  <rdf:RDF xmlns:dc="http://purl.org/dc/elements/1.1/" xmlns:cc="http://creativecommons.org/ns#" xmlns:rdf="http://www.w3.org/1999/02/22-rdf-syntax-ns#">
   <cc:Work>
    <dc:type rdf:resource="http://purl.org/dc/dcmitype/StillImage"/>
    <dc:date>2026-10-05T22:28:07.630844</dc:date>
    <dc:format>image/svg+xml</dc:format>
    <dc:creator>
     <cc:Agent>
      <dc:title>Matplotlib v3.9.2, https://matplotlib.org/</dc:title>
     </cc:Agent>
    </dc:creator>
   </cc:Work>
  </rdf:RDF>
 </metadata>
 <defs>
  <style type="text/css">*{stroke-linejoin: round; stroke-linecap: butt}</style>
 </defs>
 <g id="figure_1">
  <g id="patch_1">
   <path d="M 0 302.4
L 532.8 302.4
L 532.8 0
L 0 0
z
" style="fill: #ffffff"/>
  </g>
  <g id="axes_1">
   <g id="patch_2">
    <path d="M 37.023365 270.979135
L 515.484135 270.979135
L 515.484135 3.00024
L 37.023365 3.00024
z
" style="fill: #ffffff"/>
   </g>
   <g id="matplotlib.axis_1">
    <g id="xtick_1">
     <g id="line2d_1">
      <defs>
       <path id="m689775f088" d="M 0 0
L 0 3.5
" style="stroke: #000000; stroke-width: 0.8"/>
      </defs>
      <g>
       <use xlink:href="#m689775f088" x="37.023365" y="270.979135" style="stroke: #000000; stroke-width: 0.8"/>
      </g>
     </g>
     <g id="text_1">
      <text style="font: 9px 'DejaVu Sans'; text-anchor: middle" x="37.023365" y="284.817729" transform="rotate(-0 37.023365 284.817729)">0</text>
     </g>
    </g>
    <g id="xtick_2">
     <g id="line2d_2">
      <g>
       <use xlink:href="#m689775f088" x="96.830961" y="270.979135" style="stroke: #000000; stroke-width: 0.8"/>
      </g>
     </g>
     <g id="text_2">
      <text style="font: 9px 'DejaVu Sans'; text-anchor: middle" x="96.830961" y="284.817729" transform="rotate(-0 96.830961 284.817729)">2000</text>
     </g>
    </g>
    <g id="xtick_3">
     <g id="line2d_3">
      <g>
       <use xlink:href="#m689775f088" x="156.638558" y="270.979135" style="stroke: #000000; stroke-width: 0.8"/>
      </g>
     </g>
     <g id="text_3">
      <text style="font: 9px 'DejaVu Sans'; text-anchor: middle" x="156.638558" y="284.817729" transform="rotate(-0 156.638558 284.817729)">4000</text>
     </g>
    </g>
    <g id="xtick_4">
     <g id="line2d_4">
      <g>
       <use xlink:href="#m689775f088" x="216.446154" y="270.979135" style="stroke: #000000; stroke-width: 0.8"/>
      </g>
     </g>
     <g id="text_4">
      <text style="font: 9px 'DejaVu Sans'; text-anchor: middle" x="216.446154" y="284.817729" transform="rotate(-0 216.446154 284.817729)">6000</text>
     </g>
    </g>
    <g id="xtick_5">
     <g id="line2d_5">
      <g>
       <use xlink:href="#m689775f088" x="276.25375" y="270.979135" style="stroke: #000000; stroke-width: 0.8"/>
      </g>
     </g>
     <g id="text_5">
      <text style="font: 9px 'DejaVu Sans'; text-anchor: middle" x="276.25375" y="284.817729" transform="rotate(-0 276.25375 284.817729)">8000</text>
     </g>
    </g>
    <g id="xtick_6">
     <g id="line2d_6">
      <g>
       <use xlink:href="#m689775f088" x="336.061346" y="270.979135" style="stroke: #000000; stroke-width: 0.8"/>
      </g>
     </g>
     <g id="text_6">
      <text style="font: 9px 'DejaVu Sans'; text-anchor: middle" x="336.061346" y="284.817729" transform="rotate(-0 336.061346 284.817729)">10000</text>
     </g>
    </g>
    <g id="xtick_7">
     <g id="line2d_7">
      <g>
       <use xlink:href="#m689775f088" x="395.868943" y="270.979135" style="stroke: #000000; stroke-width: 0.8"/>
      </g>
     </g>
     <g id="text_7">
      <text style="font: 9px 'DejaVu Sans'; text-anchor: middle" x="395.868943" y="284.817729" transform="rotate(-0 395.868943 284.817729)">12000</text>
     </g>
    </g>
    <g id="xtick_8">
     <g id="line2d_8">
      <g>
       <use xlink:href="#m689775f088" x="455.676539" y="270.979135" style="stroke: #000000; stroke-width: 0.8"/>
      </g>
     </g>
     <g id="text_8">
      <text style="font: 9px 'DejaVu Sans'; text-anchor: middle" x="455.676539" y="284.817729" transform="rotate(-0 455.676539 284.817729)">14000</text>
     </g>
    </g>
    <g id="xtick_9">
     <g id="line2d_9">
      <g>
       <use xlink:href="#m689775f088" x="515.484135" y="270.979135" style="stroke: #000000; stroke-width: 0.8"/>
      </g>
     </g>
     <g id="text_9">
      <text style="font: 9px 'DejaVu Sans'; text-anchor: middle" x="515.484135" y="284.817729" transform="rotate(-0 515.484135 284.817729)">16000</text>
     </g>
    </g>
    <g id="text_10">
     <text style="font: 9px 'DejaVu Sans'; text-anchor: middle" x="276.25375" y="297.528041" transform="rotate(-0 276.25375 297.528041)">Global optimizer step</text>
    </g>
   </g>
   <g id="matplotlib.axis_2">
    <g id="ytick_1">
     <g id="line2d_10">
      <path d="M 37.023365 244.241482
L 515.484135 244.241482
" clip-path="url(#p6d4227674a)" style="fill: none; stroke: #b0b0b0; stroke-opacity: 0.15; stroke-width: 0.8; stroke-linecap: square"/>
     </g>
     <g id="line2d_11">
      <defs>
       <path id="m539bc5274c" d="M 0 0
L -3.5 0
" style="stroke: #000000; stroke-width: 0.8"/>
      </defs>
      <g>
       <use xlink:href="#m539bc5274c" x="37.023365" y="244.241482" style="stroke: #000000; stroke-width: 0.8"/>
      </g>
     </g>
     <g id="text_11">
      <text style="font: 9px 'DejaVu Sans'; text-anchor: end" x="30.023365" y="247.660779" transform="rotate(-0 30.023365 247.660779)">1.5</text>
     </g>
    </g>
    <g id="ytick_2">
     <g id="line2d_12">
      <path d="M 37.023365 199.978134
L 515.484135 199.978134
" clip-path="url(#p6d4227674a)" style="fill: none; stroke: #b0b0b0; stroke-opacity: 0.15; stroke-width: 0.8; stroke-linecap: square"/>
     </g>
     <g id="line2d_13">
      <g>
       <use xlink:href="#m539bc5274c" x="37.023365" y="199.978134" style="stroke: #000000; stroke-width: 0.8"/>
      </g>
     </g>
     <g id="text_12">
      <text style="font: 9px 'DejaVu Sans'; text-anchor: end" x="30.023365" y="203.397431" transform="rotate(-0 30.023365 203.397431)">2.0</text>
     </g>
    </g>
    <g id="ytick_3">
     <g id="line2d_14">
      <path d="M 37.023365 155.714787
L 515.484135 155.714787
" clip-path="url(#p6d4227674a)" style="fill: none; stroke: #b0b0b0; stroke-opacity: 0.15; stroke-width: 0.8; stroke-linecap: square"/>
     </g>
     <g id="line2d_15">
      <g>
       <use xlink:href="#m539bc5274c" x="37.023365" y="155.714787" style="stroke: #000000; stroke-width: 0.8"/>
      </g>
     </g>
     <g id="text_13">
      <text style="font: 9px 'DejaVu Sans'; text-anchor: end" x="30.023365" y="159.134084" transform="rotate(-0 30.023365 159.134084)">2.5</text>
     </g>
    </g>
    <g id="ytick_4">
     <g id="line2d_16">
      <path d="M 37.023365 111.451439
L 515.484135 111.451439
" clip-path="url(#p6d4227674a)" style="fill: none; stroke: #b0b0b0; stroke-opacity: 0.15; stroke-width: 0.8; stroke-linecap: square"/>
     </g>
     <g id="line2d_17">
      <g>
       <use xlink:href="#m539bc5274c" x="37.023365" y="111.451439" style="stroke: #000000; stroke-width: 0.8"/>
      </g>
     </g>
     <g id="text_14">
      <text style="font: 9px 'DejaVu Sans'; text-anchor: end" x="30.023365" y="114.870736" transform="rotate(-0 30.023365 114.870736)">3.0</text>
     </g>
    </g>
    <g id="ytick_5">
     <g id="line2d_18">
      <path d="M 37.023365 67.188092
L 515.484135 67.188092
" clip-path="url(#p6d4227674a)" style="fill: none; stroke: #b0b0b0; stroke-opacity: 0.15; stroke-width: 0.8; stroke-linecap: square"/>
     </g>
     <g id="line2d_19">
      <g>
       <use xlink:href="#m539bc5274c" x="37.023365" y="67.188092" style="stroke: #000000; stroke-width: 0.8"/>
      </g>
     </g>
     <g id="text_15">
      <text style="font: 9px 'DejaVu Sans'; text-anchor: end" x="30.023365" y="70.607389" transform="rotate(-0 30.023365 70.607389)">3.5</text>
     </g>
    </g>
    <g id="ytick_6">
     <g id="line2d_20">
      <path d="M 37.023365 22.924744
L 515.484135 22.924744
" clip-path="url(#p6d4227674a)" style="fill: none; stroke: #b0b0b0; stroke-opacity: 0.15; stroke-width: 0.8; stroke-linecap: square"/>
     </g>
     <g id="line2d_21">
      <g>
       <use xlink:href="#m539bc5274c" x="37.023365" y="22.924744" style="stroke: #000000; stroke-width: 0.8"/>
      </g>
     </g>
     <g id="text_16">
      <text style="font: 9px 'DejaVu Sans'; text-anchor: end" x="30.023365" y="26.344041" transform="rotate(-0 30.023365 26.344041)">4.0</text>
     </g>
    </g>
    <g id="text_17">
     <text style="font: 9px 'DejaVu Sans'; text-anchor: middle" x="9.838834" y="136.989688" transform="rotate(-90 9.838834 136.989688)">Full-horizon overall minFDE6 (m)</text>
    </g>
   </g>
   <g id="line2d_22">
    <path d="M 51.975264 15.181099
L 66.927163 164.82844
L 81.879062 218.157859
L 96.830961 242.613312
L 111.78286 247.510734
L 126.734759 245.127086
L 141.686658 250.719262
L 156.638558 248.610594
L 171.590457 239.294404
L 186.542356 236.887084
L 201.494255 253.340954
L 216.446154 254.606614
L 231.398053 254.019653
L 246.349952 255.140978
L 261.301851 255.522257
L 276.25375 256.457122
L 291.205649 256.083181
L 306.157548 256.526532
L 321.109447 255.870962
L 336.061346 255.558553
L 351.013245 256.585086
L 365.965144 255.937747
L 380.917043 255.923803
L 395.868943 256.383095
L 410.820842 257.421569
L 425.772741 258.117116
L 440.72464 256.09757
L 455.676539 256.203281
L 470.628438 256.933091
L 485.580337 257.599408
L 500.532236 257.112126
" clip-path="url(#p6d4227674a)" style="fill: none; stroke: #73808a; stroke-width: 1.1; stroke-linecap: square"/>
    <defs>
     <path id="m09d695662d" d="M 0 1.5
C 0.397805 1.5 0.77937 1.341951 1.06066 1.06066
C 1.341951 0.77937 1.5 0.397805 1.5 0
C 1.5 -0.397805 1.341951 -0.77937 1.06066 -1.06066
C 0.77937 -1.341951 0.397805 -1.5 0 -1.5
C -0.397805 -1.5 -0.77937 -1.341951 -1.06066 -1.06066
C -1.341951 -0.77937 -1.5 -0.397805 -1.5 0
C -1.5 0.397805 -1.341951 0.77937 -1.06066 1.06066
C -0.77937 1.341951 -0.397805 1.5 0 1.5
z
" style="stroke: #73808a"/>
    </defs>
    <g clip-path="url(#p6d4227674a)">
     <use xlink:href="#m09d695662d" x="51.975264" y="15.181099" style="fill: #73808a; stroke: #73808a"/>
     <use xlink:href="#m09d695662d" x="66.927163" y="164.82844" style="fill: #73808a; stroke: #73808a"/>
     <use xlink:href="#m09d695662d" x="81.879062" y="218.157859" style="fill: #73808a; stroke: #73808a"/>
     <use xlink:href="#m09d695662d" x="96.830961" y="242.613312" style="fill: #73808a; stroke: #73808a"/>
     <use xlink:href="#m09d695662d" x="111.78286" y="247.510734" style="fill: #73808a; stroke: #73808a"/>
     <use xlink:href="#m09d695662d" x="126.734759" y="245.127086" style="fill: #73808a; stroke: #73808a"/>
     <use xlink:href="#m09d695662d" x="141.686658" y="250.719262" style="fill: #73808a; stroke: #73808a"/>
     <use xlink:href="#m09d695662d" x="156.638558" y="248.610594" style="fill: #73808a; stroke: #73808a"/>
     <use xlink:href="#m09d695662d" x="171.590457" y="239.294404" style="fill: #73808a; stroke: #73808a"/>
     <use xlink:href="#m09d695662d" x="186.542356" y="236.887084" style="fill: #73808a; stroke: #73808a"/>
     <use xlink:href="#m09d695662d" x="201.494255" y="253.340954" style="fill: #73808a; stroke: #73808a"/>
     <use xlink:href="#m09d695662d" x="216.446154" y="254.606614" style="fill: #73808a; stroke: #73808a"/>
     <use xlink:href="#m09d695662d" x="231.398053" y="254.019653" style="fill: #73808a; stroke: #73808a"/>
     <use xlink:href="#m09d695662d" x="246.349952" y="255.140978" style="fill: #73808a; stroke: #73808a"/>
     <use xlink:href="#m09d695662d" x="261.301851" y="255.522257" style="fill: #73808a; stroke: #73808a"/>
     <use xlink:href="#m09d695662d" x="276.25375" y="256.457122" style="fill: #73808a; stroke: #73808a"/>
     <use xlink:href="#m09d695662d" x="291.205649" y="256.083181" style="fill: #73808a; stroke: #73808a"/>
     <use xlink:href="#m09d695662d" x="306.157548" y="256.526532" style="fill: #73808a; stroke: #73808a"/>
     <use xlink:href="#m09d695662d" x="321.109447" y="255.870962" style="fill: #73808a; stroke: #73808a"/>
     <use xlink:href="#m09d695662d" x="336.061346" y="255.558553" style="fill: #73808a; stroke: #73808a"/>
     <use xlink:href="#m09d695662d" x="351.013245" y="256.585086" style="fill: #73808a; stroke: #73808a"/>
     <use xlink:href="#m09d695662d" x="365.965144" y="255.937747" style="fill: #73808a; stroke: #73808a"/>
     <use xlink:href="#m09d695662d" x="380.917043" y="255.923803" style="fill: #73808a; stroke: #73808a"/>
     <use xlink:href="#m09d695662d" x="395.868943" y="256.383095" style="fill: #73808a; stroke: #73808a"/>
     <use xlink:href="#m09d695662d" x="410.820842" y="257.421569" style="fill: #73808a; stroke: #73808a"/>
     <use xlink:href="#m09d695662d" x="425.772741" y="258.117116" style="fill: #73808a; stroke: #73808a"/>
     <use xlink:href="#m09d695662d" x="440.72464" y="256.09757" style="fill: #73808a; stroke: #73808a"/>
     <use xlink:href="#m09d695662d" x="455.676539" y="256.203281" style="fill: #73808a; stroke: #73808a"/>
     <use xlink:href="#m09d695662d" x="470.628438" y="256.933091" style="fill: #73808a; stroke: #73808a"/>
     <use xlink:href="#m09d695662d" x="485.580337" y="257.599408" style="fill: #73808a; stroke: #73808a"/>
     <use xlink:href="#m09d695662d" x="500.532236" y="257.112126" style="fill: #73808a; stroke: #73808a"/>
    </g>
   </g>
   <g id="line2d_23">
    <path d="M 51.975264 17.402824
L 66.927163 165.861956
L 81.879062 226.695133
L 96.830961 238.898774
L 111.78286 238.420774
L 126.734759 245.160322
L 141.686658 250.11241
L 156.638558 247.312323
L 171.590457 252.283961
L 186.542356 244.461412
L 201.494255 256.125244
L 216.446154 256.865093
L 231.398053 258.177243
L 246.349952 258.090705
L 261.301851 258.485048
L 276.25375 258.674448
L 291.205649 257.698515
L 306.157548 258.798276
L 321.109447 258.48424
L 336.061346 257.885484
L 351.013245 258.791547
L 365.965144 257.607269
L 380.917043 258.002284
" clip-path="url(#p6d4227674a)" style="fill: none; stroke: #2478a5; stroke-width: 1.1; stroke-linecap: square"/>
    <defs>
     <path id="mf64e78acf4" d="M 0 1.5
C 0.397805 1.5 0.77937 1.341951 1.06066 1.06066
C 1.341951 0.77937 1.5 0.397805 1.5 0
C 1.5 -0.397805 1.341951 -0.77937 1.06066 -1.06066
C 0.77937 -1.341951 0.397805 -1.5 0 -1.5
C -0.397805 -1.5 -0.77937 -1.341951 -1.06066 -1.06066
C -1.341951 -0.77937 -1.5 -0.397805 -1.5 0
C -1.5 0.397805 -1.341951 0.77937 -1.06066 1.06066
C -0.77937 1.341951 -0.397805 1.5 0 1.5
z
" style="stroke: #2478a5"/>
    </defs>
    <g clip-path="url(#p6d4227674a)">
     <use xlink:href="#mf64e78acf4" x="51.975264" y="17.402824" style="fill: #2478a5; stroke: #2478a5"/>
     <use xlink:href="#mf64e78acf4" x="66.927163" y="165.861956" style="fill: #2478a5; stroke: #2478a5"/>
     <use xlink:href="#mf64e78acf4" x="81.879062" y="226.695133" style="fill: #2478a5; stroke: #2478a5"/>
     <use xlink:href="#mf64e78acf4" x="96.830961" y="238.898774" style="fill: #2478a5; stroke: #2478a5"/>
     <use xlink:href="#mf64e78acf4" x="111.78286" y="238.420774" style="fill: #2478a5; stroke: #2478a5"/>
     <use xlink:href="#mf64e78acf4" x="126.734759" y="245.160322" style="fill: #2478a5; stroke: #2478a5"/>
     <use xlink:href="#mf64e78acf4" x="141.686658" y="250.11241" style="fill: #2478a5; stroke: #2478a5"/>
     <use xlink:href="#mf64e78acf4" x="156.638558" y="247.312323" style="fill: #2478a5; stroke: #2478a5"/>
     <use xlink:href="#mf64e78acf4" x="171.590457" y="252.283961" style="fill: #2478a5; stroke: #2478a5"/>
     <use xlink:href="#mf64e78acf4" x="186.542356" y="244.461412" style="fill: #2478a5; stroke: #2478a5"/>
     <use xlink:href="#mf64e78acf4" x="201.494255" y="256.125244" style="fill: #2478a5; stroke: #2478a5"/>
     <use xlink:href="#mf64e78acf4" x="216.446154" y="256.865093" style="fill: #2478a5; stroke: #2478a5"/>
     <use xlink:href="#mf64e78acf4" x="231.398053" y="258.177243" style="fill: #2478a5; stroke: #2478a5"/>
     <use xlink:href="#mf64e78acf4" x="246.349952" y="258.090705" style="fill: #2478a5; stroke: #2478a5"/>
     <use xlink:href="#mf64e78acf4" x="261.301851" y="258.485048" style="fill: #2478a5; stroke: #2478a5"/>
     <use xlink:href="#mf64e78acf4" x="276.25375" y="258.674448" style="fill: #2478a5; stroke: #2478a5"/>
     <use xlink:href="#mf64e78acf4" x="291.205649" y="257.698515" style="fill: #2478a5; stroke: #2478a5"/>
     <use xlink:href="#mf64e78acf4" x="306.157548" y="258.798276" style="fill: #2478a5; stroke: #2478a5"/>
     <use xlink:href="#mf64e78acf4" x="321.109447" y="258.48424" style="fill: #2478a5; stroke: #2478a5"/>
     <use xlink:href="#mf64e78acf4" x="336.061346" y="257.885484" style="fill: #2478a5; stroke: #2478a5"/>
     <use xlink:href="#mf64e78acf4" x="351.013245" y="258.791547" style="fill: #2478a5; stroke: #2478a5"/>
     <use xlink:href="#mf64e78acf4" x="365.965144" y="257.607269" style="fill: #2478a5; stroke: #2478a5"/>
     <use xlink:href="#mf64e78acf4" x="380.917043" y="258.002284" style="fill: #2478a5; stroke: #2478a5"/>
    </g>
   </g>
   <g id="line2d_24">
    <path d="M 186.542356 270.979135
L 186.542356 3.00024
" clip-path="url(#p6d4227674a)" style="fill: none; stroke-dasharray: 0.7,1.155; stroke-dashoffset: 0; stroke: #a4abb0; stroke-width: 0.7"/>
   </g>
   <g id="patch_3">
    <path d="M 37.023365 270.979135
L 37.023365 3.00024
" style="fill: none; stroke: #000000; stroke-width: 0.8; stroke-linejoin: miter; stroke-linecap: square"/>
   </g>
   <g id="patch_4">
    <path d="M 37.023365 270.979135
L 515.484135 270.979135
" style="fill: none; stroke: #000000; stroke-width: 0.8; stroke-linejoin: miter; stroke-linecap: square"/>
   </g>
   <g id="text_18">
    <g id="patch_5">
     <path d="M 361.39492 37.099935
L 509.91492 37.099935
L 509.91492 12.399185
L 361.39492 12.399185
z
" style="fill: #ffffff; opacity: 0.94"/>
    </g>
    <text style="font: 8px 'DejaVu Sans'" transform="translate(365.39492 22.477935)">Stage3B best: 13000 / 1.343260 m</text>
    <text style="font: 8px 'DejaVu Sans'" transform="translate(370.50117 31.436185)">Stage4A best: 9000 / 1.335566 m</text>
   </g>
   <g id="legend_1">
    <g id="line2d_25">
     <path d="M 44.223365 67.074769
L 52.223365 67.074769
L 60.223365 67.074769
" style="fill: none; stroke: #73808a; stroke-width: 1.1; stroke-linecap: square"/>
     <g>
      <use xlink:href="#m09d695662d" x="52.223365" y="67.074769" style="fill: #73808a; stroke: #73808a"/>
     </g>
    </g>
    <g id="text_19">
     <text style="font: 8px 'DejaVu Sans'; text-anchor: start" x="66.623365" y="69.874769" transform="rotate(-0 66.623365 69.874769)">Stage3B Type Embedding</text>
    </g>
    <g id="line2d_26">
     <path d="M 44.223365 78.817269
L 52.223365 78.817269
L 60.223365 78.817269
" style="fill: none; stroke: #2478a5; stroke-width: 1.1; stroke-linecap: square"/>
     <g>
      <use xlink:href="#mf64e78acf4" x="52.223365" y="78.817269" style="fill: #2478a5; stroke: #2478a5"/>
     </g>
    </g>
    <g id="text_20">
     <text style="font: 8px 'DejaVu Sans'; text-anchor: start" x="66.623365" y="81.617269" transform="rotate(-0 66.623365 81.617269)">Stage4A Type Interaction</text>
    </g>
   </g>
   <g id="PathCollection_1">
    <defs>
     <path id="m0f630dff9e" d="M 0 -4.472136
L -1.004057 -1.381966
L -4.253254 -1.381966
L -1.624598 0.527864
L -2.628656 3.618034
L -0 1.708204
L 2.628656 3.618034
L 1.624598 0.527864
L 4.253254 -1.381966
L 1.004057 -1.381966
z
" style="stroke: #ffffff; stroke-width: 0.35"/>
    </defs>
    <g clip-path="url(#p6d4227674a)">
     <use xlink:href="#m0f630dff9e" x="425.772741" y="258.117116" style="fill: #73808a; stroke: #ffffff; stroke-width: 0.35"/>
    </g>
   </g>
   <g id="PathCollection_2">
    <defs>
     <path id="m8bdf0facbe" d="M 0 -4.472136
L -1.004057 -1.381966
L -4.253254 -1.381966
L -1.624598 0.527864
L -2.628656 3.618034
L -0 1.708204
L 2.628656 3.618034
L 1.624598 0.527864
L 4.253254 -1.381966
L 1.004057 -1.381966
z
" style="stroke: #ffffff; stroke-width: 0.35"/>
    </defs>
    <g clip-path="url(#p6d4227674a)">
     <use xlink:href="#m8bdf0facbe" x="306.157548" y="258.798276" style="fill: #2478a5; stroke: #ffffff; stroke-width: 0.35"/>
    </g>
   </g>
  </g>
 </g>
 <defs>
  <clipPath id="p6d4227674a">
   <rect x="37.023365" y="3.00024" width="478.46077" height="267.978895"/>
  </clipPath>
 </defs>
</svg>
