<?xml version="1.0" encoding="utf-8" standalone="no"?>
<!DOCTYPE svg PUBLIC "-//W3C//DTD SVG 1.1//EN"
  "http://www.w3.org/Graphics/SVG/1.1/DTD/svg11.dtd">
<svg xmlns:xlink="http://www.w3.org/1999/xlink" width="324pt" height="230.4pt" viewBox="0 0 324 230.4" xmlns="http://www.w3.org/2000/svg" version="1.1">
 <metadata>
  <rdf:RDF xmlns:dc="http://purl.org/dc/elements/1.1/" xmlns:cc="http://creativecommons.org/ns#" xmlns:rdf="http://www.w3.org/1999/02/22-rdf-syntax-ns#">
   <cc:Work>
    <dc:type rdf:resource="http://purl.org/dc/dcmitype/StillImage"/>
    <dc:date>2026-10-05T23:05:56.644789</dc:date>
    <dc:format>image/svg+xml</dc:format>
    <dc:creator>
     <cc:Agent>
      <dc:title>Matplotlib v3.9.2, https://matplotlib.org/</dc:title>
     </cc:Agent>
    </dc:creator>
   </cc:Work>
  </rdf:RDF>
 </metadata>
 <defs>
  <style type="text/css">*{stroke-linejoin: round; stroke-linecap: butt}</style>
 </defs>
 <g id="figure_1">
  <g id="patch_1">
   <path d="M 0 230.4 
L 324 230.4 
L 324 0 
L 0 0 
z
" style="fill: #ffffff"/>
  </g>
  <g id="axes_1">
   <g id="patch_2">
    <path d="M 45.47 189.16 
L 313.2 189.16 
L 313.2 10.8 
L 45.47 10.8 
z
" style="fill: #ffffff"/>
   </g>
   <g id="matplotlib.axis_1">
    <g id="xtick_1">
     <g id="line2d_1">
      <defs>
       <path id="m6a9ecb50ea" d="M 0 0 
L 0 3.5 
" style="stroke: #000000; stroke-width: 0.8"/>
      </defs>
      <g>
       <use xlink:href="#m6a9ecb50ea" x="57.639545" y="189.16" style="stroke: #000000; stroke-width: 0.8"/>
      </g>
     </g>
     <g id="text_1">
      <text style="font: 9px 'DejaVu Sans'; text-anchor: middle" x="57.639545" y="202.998594" transform="rotate(-0 57.639545 202.998594)">0</text>
     </g>
    </g>
    <g id="xtick_2">
     <g id="line2d_2">
      <g>
       <use xlink:href="#m6a9ecb50ea" x="118.487273" y="189.16" style="stroke: #000000; stroke-width: 0.8"/>
      </g>
     </g>
     <g id="text_2">
      <text style="font: 9px 'DejaVu Sans'; text-anchor: middle" x="118.487273" y="202.998594" transform="rotate(-0 118.487273 202.998594)">0.25</text>
     </g>
    </g>
    <g id="xtick_3">
     <g id="line2d_3">
      <g>
       <use xlink:href="#m6a9ecb50ea" x="179.335" y="189.16" style="stroke: #000000; stroke-width: 0.8"/>
      </g>
     </g>
     <g id="text_3">
      <text style="font: 9px 'DejaVu Sans'; text-anchor: middle" x="179.335" y="202.998594" transform="rotate(-0 179.335 202.998594)">0.50</text>
     </g>
    </g>
    <g id="xtick_4">
     <g id="line2d_4">
      <g>
       <use xlink:href="#m6a9ecb50ea" x="240.182727" y="189.16" style="stroke: #000000; stroke-width: 0.8"/>
      </g>
     </g>
     <g id="text_4">
      <text style="font: 9px 'DejaVu Sans'; text-anchor: middle" x="240.182727" y="202.998594" transform="rotate(-0 240.182727 202.998594)">0.75</text>
     </g>
    </g>
    <g id="xtick_5">
     <g id="line2d_5">
      <g>
       <use xlink:href="#m6a9ecb50ea" x="301.030455" y="189.16" style="stroke: #000000; stroke-width: 0.8"/>
      </g>
     </g>
     <g id="text_5">
      <text style="font: 9px 'DejaVu Sans'; text-anchor: middle" x="301.030455" y="202.998594" transform="rotate(-0 301.030455 202.998594)">1.00</text>
     </g>
    </g>
    <g id="text_6">
     <!-- Inference bias scale $\lambda$ -->
     <g transform="translate(130.33 215.708906)">
      <text>
       <tspan style="font: 9px 'DejaVu Sans'" x="0 2.654297 8.358398 11.526855 17.063965 20.76416 26.30127 32.005371 36.953613 42.490723 45.351562 51.064453 53.564941 59.080078 63.769043 66.629883 71.318848 76.26709 81.782227 84.282715 89.819824" y="-0.15625">Inference bias scale </tspan>
       <tspan style="font: oblique 9px 'DejaVu Sans'" x="92.680664" y="-0.15625">λ</tspan>
      </text>
     </g>
    </g>
   </g>
   <g id="matplotlib.axis_2">
    <g id="ytick_1">
     <g id="line2d_6">
      <defs>
       <path id="ma040c236c8" d="M 0 0 
L -3.5 0 
" style="stroke: #000000; stroke-width: 0.8"/>
      </defs>
      <g>
       <use xlink:href="#ma040c236c8" x="45.47" y="170.791031" style="stroke: #000000; stroke-width: 0.8"/>
      </g>
     </g>
     <g id="text_7">
      <text style="font: 9px 'DejaVu Sans'; text-anchor: end" x="38.47" y="174.210327" transform="rotate(-0 38.47 174.210327)">1.6</text>
     </g>
    </g>
    <g id="ytick_2">
     <g id="line2d_7">
      <g>
       <use xlink:href="#ma040c236c8" x="45.47" y="139.765406" style="stroke: #000000; stroke-width: 0.8"/>
      </g>
     </g>
     <g id="text_8">
      <text style="font: 9px 'DejaVu Sans'; text-anchor: end" x="38.47" y="143.184703" transform="rotate(-0 38.47 143.184703)">2.4</text>
     </g>
    </g>
    <g id="ytick_3">
     <g id="line2d_8">
      <g>
       <use xlink:href="#ma040c236c8" x="45.47" y="108.739782" style="stroke: #000000; stroke-width: 0.8"/>
      </g>
     </g>
     <g id="text_9">
      <text style="font: 9px 'DejaVu Sans'; text-anchor: end" x="38.47" y="112.159079" transform="rotate(-0 38.47 112.159079)">3.2</text>
     </g>
    </g>
    <g id="ytick_4">
     <g id="line2d_9">
      <g>
       <use xlink:href="#ma040c236c8" x="45.47" y="77.714157" style="stroke: #000000; stroke-width: 0.8"/>
      </g>
     </g>
     <g id="text_10">
      <text style="font: 9px 'DejaVu Sans'; text-anchor: end" x="38.47" y="81.133454" transform="rotate(-0 38.47 81.133454)">4.0</text>
     </g>
    </g>
    <g id="ytick_5">
     <g id="line2d_10">
      <g>
       <use xlink:href="#ma040c236c8" x="45.47" y="46.688533" style="stroke: #000000; stroke-width: 0.8"/>
      </g>
     </g>
     <g id="text_11">
      <text style="font: 9px 'DejaVu Sans'; text-anchor: end" x="38.47" y="50.10783" transform="rotate(-0 38.47 50.10783)">4.8</text>
     </g>
    </g>
    <g id="ytick_6">
     <g id="line2d_11">
      <g>
       <use xlink:href="#ma040c236c8" x="45.47" y="15.662909" style="stroke: #000000; stroke-width: 0.8"/>
      </g>
     </g>
     <g id="text_12">
      <text style="font: 9px 'DejaVu Sans'; text-anchor: end" x="38.47" y="19.082205" transform="rotate(-0 38.47 19.082205)">5.6</text>
     </g>
    </g>
    <g id="text_13">
     <text style="font: 9px 'DejaVu Sans'; text-anchor: middle" x="18.285469" y="99.98" transform="rotate(-90 18.285469 99.98)">minFDE (m)</text>
    </g>
   </g>
   <g id="line2d_12">
    <path d="M 57.639545 19.010405 
L 118.487273 18.997936 
L 179.335 18.956502 
L 240.182727 18.925941 
L 301.030455 18.907273 
" clip-path="url(#pde93cea0c3)" style="fill: none; stroke: #426e86; stroke-width: 1.3; stroke-linecap: square"/>
    <defs>
     <path id="m1d24590ec9" d="M 0 2 
C 0.530406 2 1.03916 1.789267 1.414214 1.414214 
C 1.789267 1.03916 2 0.530406 2 0 
C 2 -0.530406 1.789267 -1.03916 1.414214 -1.414214 
C 1.03916 -1.789267 0.530406 -2 0 -2 
C -0.530406 -2 -1.03916 -1.789267 -1.414214 -1.414214 
C -1.789267 -1.03916 -2 -0.530406 -2 0 
C -2 0.530406 -1.789267 1.03916 -1.414214 1.414214 
C -1.03916 1.789267 -0.530406 2 0 2 
z
" style="stroke: #426e86"/>
    </defs>
    <g clip-path="url(#pde93cea0c3)">
     <use xlink:href="#m1d24590ec9" x="57.639545" y="19.010405" style="fill: #426e86; stroke: #426e86"/>
     <use xlink:href="#m1d24590ec9" x="118.487273" y="18.997936" style="fill: #426e86; stroke: #426e86"/>
     <use xlink:href="#m1d24590ec9" x="179.335" y="18.956502" style="fill: #426e86; stroke: #426e86"/>
     <use xlink:href="#m1d24590ec9" x="240.182727" y="18.925941" style="fill: #426e86; stroke: #426e86"/>
     <use xlink:href="#m1d24590ec9" x="301.030455" y="18.907273" style="fill: #426e86; stroke: #426e86"/>
    </g>
   </g>
   <g id="line2d_13">
    <path d="M 57.639545 180.558204 
L 118.487273 181.052727 
L 179.335 181.034276 
L 240.182727 181.021582 
L 301.030455 181.012465 
" clip-path="url(#pde93cea0c3)" style="fill: none; stroke: #b66c45; stroke-width: 1.3; stroke-linecap: square"/>
    <defs>
     <path id="m50ce687860" d="M -2 2 
L 2 2 
L 2 -2 
L -2 -2 
z
" style="stroke: #b66c45; stroke-linejoin: miter"/>
    </defs>
    <g clip-path="url(#pde93cea0c3)">
     <use xlink:href="#m50ce687860" x="57.639545" y="180.558204" style="fill: #b66c45; stroke: #b66c45; stroke-linejoin: miter"/>
     <use xlink:href="#m50ce687860" x="118.487273" y="181.052727" style="fill: #b66c45; stroke: #b66c45; stroke-linejoin: miter"/>
     <use xlink:href="#m50ce687860" x="179.335" y="181.034276" style="fill: #b66c45; stroke: #b66c45; stroke-linejoin: miter"/>
     <use xlink:href="#m50ce687860" x="240.182727" y="181.021582" style="fill: #b66c45; stroke: #b66c45; stroke-linejoin: miter"/>
     <use xlink:href="#m50ce687860" x="301.030455" y="181.012465" style="fill: #b66c45; stroke: #b66c45; stroke-linejoin: miter"/>
    </g>
   </g>
   <g id="patch_3">
    <path d="M 45.47 189.16 
L 45.47 10.8 
" style="fill: none; stroke: #000000; stroke-width: 0.8; stroke-linejoin: miter; stroke-linecap: square"/>
   </g>
   <g id="patch_4">
    <path d="M 45.47 189.16 
L 313.2 189.16 
" style="fill: none; stroke: #000000; stroke-width: 0.8; stroke-linejoin: miter; stroke-linecap: square"/>
   </g>
   <g id="legend_1">
    <g id="line2d_14">
     <path d="M 219.22625 93.51625 
L 227.22625 93.51625 
L 235.22625 93.51625 
" style="fill: none; stroke: #426e86; stroke-width: 1.3; stroke-linecap: square"/>
     <g>
      <use xlink:href="#m1d24590ec9" x="227.22625" y="93.51625" style="fill: #426e86; stroke: #426e86"/>
     </g>
    </g>
    <g id="text_14">
     <text style="font: 8px 'DejaVu Sans'; text-anchor: start" x="241.62625" y="96.31625" transform="rotate(-0 241.62625 96.31625)">Vehicle &gt;5m</text>
    </g>
    <g id="line2d_15">
     <path d="M 219.22625 105.25875 
L 227.22625 105.25875 
L 235.22625 105.25875 
" style="fill: none; stroke: #b66c45; stroke-width: 1.3; stroke-linecap: square"/>
     <g>
      <use xlink:href="#m50ce687860" x="227.22625" y="105.25875" style="fill: #b66c45; stroke: #b66c45; stroke-linejoin: miter"/>
     </g>
    </g>
    <g id="text_15">
     <text style="font: 8px 'DejaVu Sans'; text-anchor: start" x="241.62625" y="108.05875" transform="rotate(-0 241.62625 108.05875)">Pedestrian &gt;5m</text>
    </g>
   </g>
  </g>
 </g>
 <defs>
  <clipPath id="pde93cea0c3">
   <rect x="45.47" y="10.8" width="267.73" height="178.36"/>
  </clipPath>
 </defs>
</svg>
