<?xml version="1.0" encoding="utf-8" standalone="no"?>
<!DOCTYPE svg PUBLIC "-//W3C//DTD SVG 1.1//EN"
  "http://www.w3.org/Graphics/SVG/1.1/DTD/svg11.dtd">
<svg xmlns:xlink="http://www.w3.org/1999/xlink" width="861.12pt" height="638.156711pt" viewBox="0 0 861.12 638.156711" xmlns="http://www.w3.org/2000/svg" version="1.1">
 <metadata>
  <rdf:RDF xmlns:dc="http://purl.org/dc/elements/1.1/" xmlns:cc="http://creativecommons.org/ns#" xmlns:rdf="http://www.w3.org/1999/02/22-rdf-syntax-ns#">
   <cc:Work>
    <dc:type rdf:resource="http://purl.org/dc/dcmitype/StillImage"/>
    <dc:date>2026-10-09T17:05:34.370433</dc:date>
    <dc:format>image/svg+xml</dc:format>
    <dc:creator>
     <cc:Agent>
      <dc:title>Matplotlib v3.9.2, https://matplotlib.org/</dc:title>
     </cc:Agent>
    </dc:creator>
   </cc:Work>
  </rdf:RDF>
 </metadata>
 <defs>
  <style type="text/css">*{stroke-linejoin: round; stroke-linecap: butt}</style>
 </defs>
 <g id="figure_1">
  <g id="patch_1">
   <path d="M 0 638.156711
L 861.12 638.156711
L 861.12 0
L 0 0
z
" style="fill: #ffffff"/>
  </g>
  <g id="axes_1">
   <g id="patch_2">
    <path d="M 202.670827 400.777908
L 658.449173 400.777908
L 658.449173 86.784
L 202.670827 86.784
z
" style="fill: #ffffff"/>
   </g>
   <g id="matplotlib.axis_1">
    <g id="xtick_1">
     <g id="line2d_1">
      <path d="M 245.421206 400.777908
L 245.421206 86.784
" clip-path="url(#p3b46a37bc3)" style="fill: none; stroke: #cccccc; stroke-width: 0.8; stroke-linecap: round"/>
     </g>
     <g id="line2d_2"/>
     <g id="text_1">
      <text style="fill: #262626; font: 8px 'DejaVu Sans'; text-anchor: middle" x="245.421206" y="410.356658" transform="rotate(-0 245.421206 410.356658)">−5</text>
     </g>
    </g>
    <g id="xtick_2">
     <g id="line2d_3">
      <path d="M 308.248746 400.777908
L 308.248746 86.784
" clip-path="url(#p3b46a37bc3)" style="fill: none; stroke: #cccccc; stroke-width: 0.8; stroke-linecap: round"/>
     </g>
     <g id="line2d_4"/>
     <g id="text_2">
      <text style="fill: #262626; font: 8px 'DejaVu Sans'; text-anchor: middle" x="308.248746" y="410.356658" transform="rotate(-0 308.248746 410.356658)">0</text>
     </g>
    </g>
    <g id="xtick_3">
     <g id="line2d_5">
      <path d="M 371.076285 400.777908
L 371.076285 86.784
" clip-path="url(#p3b46a37bc3)" style="fill: none; stroke: #cccccc; stroke-width: 0.8; stroke-linecap: round"/>
     </g>
     <g id="line2d_6"/>
     <g id="text_3">
      <text style="fill: #262626; font: 8px 'DejaVu Sans'; text-anchor: middle" x="371.076285" y="410.356658" transform="rotate(-0 371.076285 410.356658)">5</text>
     </g>
    </g>
    <g id="xtick_4">
     <g id="line2d_7">
      <path d="M 433.903825 400.777908
L 433.903825 86.784
" clip-path="url(#p3b46a37bc3)" style="fill: none; stroke: #cccccc; stroke-width: 0.8; stroke-linecap: round"/>
     </g>
     <g id="line2d_8"/>
     <g id="text_4">
      <text style="fill: #262626; font: 8px 'DejaVu Sans'; text-anchor: middle" x="433.903825" y="410.356658" transform="rotate(-0 433.903825 410.356658)">10</text>
     </g>
    </g>
    <g id="xtick_5">
     <g id="line2d_9">
      <path d="M 496.731364 400.777908
L 496.731364 86.784
" clip-path="url(#p3b46a37bc3)" style="fill: none; stroke: #cccccc; stroke-width: 0.8; stroke-linecap: round"/>
     </g>
     <g id="line2d_10"/>
     <g id="text_5">
      <text style="fill: #262626; font: 8px 'DejaVu Sans'; text-anchor: middle" x="496.731364" y="410.356658" transform="rotate(-0 496.731364 410.356658)">15</text>
     </g>
    </g>
    <g id="xtick_6">
     <g id="line2d_11">
      <path d="M 559.558903 400.777908
L 559.558903 86.784
" clip-path="url(#p3b46a37bc3)" style="fill: none; stroke: #cccccc; stroke-width: 0.8; stroke-linecap: round"/>
     </g>
     <g id="line2d_12"/>
     <g id="text_6">
      <text style="fill: #262626; font: 8px 'DejaVu Sans'; text-anchor: middle" x="559.558903" y="410.356658" transform="rotate(-0 559.558903 410.356658)">20</text>
     </g>
    </g>
    <g id="xtick_7">
     <g id="line2d_13">
      <path d="M 622.386443 400.777908
L 622.386443 86.784
" clip-path="url(#p3b46a37bc3)" style="fill: none; stroke: #cccccc; stroke-width: 0.8; stroke-linecap: round"/>
     </g>
     <g id="line2d_14"/>
     <g id="text_7">
      <text style="fill: #262626; font: 8px 'DejaVu Sans'; text-anchor: middle" x="622.386443" y="410.356658" transform="rotate(-0 622.386443 410.356658)">25</text>
     </g>
    </g>
    <g id="text_8">
     <text style="fill: #262626; font: 8px 'DejaVu Sans'; text-anchor: middle" x="430.56" y="422.099158" transform="rotate(-0 430.56 422.099158)">t0 ego x (m)</text>
    </g>
   </g>
   <g id="matplotlib.axis_2">
    <g id="ytick_1">
     <g id="line2d_15">
      <path d="M 202.670827 375.223519
L 658.449173 375.223519
" clip-path="url(#p3b46a37bc3)" style="fill: none; stroke: #cccccc; stroke-width: 0.8; stroke-linecap: round"/>
     </g>
     <g id="line2d_16"/>
     <g id="text_9">
      <text style="fill: #262626; font: 8px 'DejaVu Sans'; text-anchor: end" x="199.170827" y="378.262894" transform="rotate(-0 199.170827 378.262894)">5</text>
     </g>
    </g>
    <g id="ytick_2">
     <g id="line2d_17">
      <path d="M 202.670827 312.395979
L 658.449173 312.395979
" clip-path="url(#p3b46a37bc3)" style="fill: none; stroke: #cccccc; stroke-width: 0.8; stroke-linecap: round"/>
     </g>
     <g id="line2d_18"/>
     <g id="text_10">
      <text style="fill: #262626; font: 8px 'DejaVu Sans'; text-anchor: end" x="199.170827" y="315.435354" transform="rotate(-0 199.170827 315.435354)">10</text>
     </g>
    </g>
    <g id="ytick_3">
     <g id="line2d_19">
      <path d="M 202.670827 249.56844
L 658.449173 249.56844
" clip-path="url(#p3b46a37bc3)" style="fill: none; stroke: #cccccc; stroke-width: 0.8; stroke-linecap: round"/>
     </g>
     <g id="line2d_20"/>
     <g id="text_11">
      <text style="fill: #262626; font: 8px 'DejaVu Sans'; text-anchor: end" x="199.170827" y="252.607815" transform="rotate(-0 199.170827 252.607815)">15</text>
     </g>
    </g>
    <g id="ytick_4">
     <g id="line2d_21">
      <path d="M 202.670827 186.740901
L 658.449173 186.740901
" clip-path="url(#p3b46a37bc3)" style="fill: none; stroke: #cccccc; stroke-width: 0.8; stroke-linecap: round"/>
     </g>
     <g id="line2d_22"/>
     <g id="text_12">
      <text style="fill: #262626; font: 8px 'DejaVu Sans'; text-anchor: end" x="199.170827" y="189.780276" transform="rotate(-0 199.170827 189.780276)">20</text>
     </g>
    </g>
    <g id="ytick_5">
     <g id="line2d_23">
      <path d="M 202.670827 123.913361
L 658.449173 123.913361
" clip-path="url(#p3b46a37bc3)" style="fill: none; stroke: #cccccc; stroke-width: 0.8; stroke-linecap: round"/>
     </g>
     <g id="line2d_24"/>
     <g id="text_13">
      <text style="fill: #262626; font: 8px 'DejaVu Sans'; text-anchor: end" x="199.170827" y="126.952736" transform="rotate(-0 199.170827 126.952736)">25</text>
     </g>
    </g>
    <g id="text_14">
     <text style="fill: #262626; font: 8px 'DejaVu Sans'; text-anchor: middle" x="183.327077" y="243.780954" transform="rotate(-90 183.327077 243.780954)">t0 ego y (m)</text>
    </g>
   </g>
   <g id="patch_3">
    <path d="M 196.613627 240.670009
L 221.41293 244.809096
L 190.013053 114.80033
L 186.923295 101.865734
L 203.598821 85.895241
L 207.478128 93.421397
L 225.668792 106.253014
L 255.155449 224.049041
L 256.970051 238.790512
L 258.153111 246.517876
L 259.387436 253.238862
L 258.037324 261.246138
L 250.361052 268.672908
L 241.618176 273.108715
L 218.662643 279.014964
L 145.758958 277.686292
L 94.44955 287.779096
L 55.405986 247.011915
L 196.613627 240.670009
" clip-path="url(#p3b46a37bc3)" style="fill: #9bd7cd; opacity: 0.14; stroke: #9bd7cd; stroke-width: 0.35; stroke-linejoin: miter"/>
   </g>
   <g id="patch_4">
    <path d="M 343.004255 41.571251
L 342.371434 53.382191
L 331.204179 68.730879
L 326.140223 90.12764
L 357.800549 218.096526
L 361.054676 230.464828
L 364.080583 238.423085
L 369.143671 251.739208
L 375.31389 259.419336
L 382.660049 262.412161
L 384.585498 263.20757
L 391.928258 267.005513
L 405.381592 267.395277
L 417.473918 267.291031
L 429.575983 266.626386
L 462.682155 446.265405
L 458.350784 446.585988
L 433.530925 448.603661
L 411.817896 450.072745
L 340.945195 454.980836
L 259.928125 460.562886
L 97.543347 291.009472
L 150.373509 281.080456
L 198.513386 279.34233
L 224.163661 278.61997
L 228.966648 277.77228
L 239.364856 275.929542
L 249.126178 271.841269
L 255.800132 267.079451
L 259.476017 259.261384
L 260.150832 251.223203
L 259.126571 246.17784
L 241.879149 158.717225
L 228.475691 106.95632
L 215.020656 95.57411
L 205.238339 84.325041
L 323.74453 -29.170765
L 343.004255 41.571251
" clip-path="url(#p3b46a37bc3)" style="fill: #e6dba8; opacity: 0.28; stroke: #e6dba8; stroke-width: 0.9; stroke-linejoin: miter"/>
   </g>
   <g id="patch_5">
    <path d="M 579.960158 471.435345
L 570.606293 468.186913
L 568.659593 468.313661
L 543.600581 469.455565
L 515.597952 470.40118
L 510.109709 460.659117
L 503.876914 453.342466
L 496.14576 448.186397
L 487.117124 446.722495
L 462.682155 446.265405
L 429.575983 266.626386
L 455.046577 264.792205
L 552.172669 261.100589
L 575.522347 260.213104
L 669.516403 254.790112
L 775.29884 248.824539
L 812.028997 247.143757
L 815.299749 250.558899
L 582.621899 473.399242
L 579.960158 471.435345
" clip-path="url(#p3b46a37bc3)" style="fill: #e6dba8; opacity: 0.28; stroke: #e6dba8; stroke-width: 0.9; stroke-linejoin: miter"/>
   </g>
   <g id="patch_6">
    <path d="M 526.130644 512.007277
L 312.083307 515.020511
L 260.83317 461.507886
L 462.458524 447.659986
L 499.381706 452.917051
L 511.365295 472.403751
L 586.850628 469.349302
L 543.85742 510.524778
L 526.130644 512.007277
" clip-path="url(#p3b46a37bc3)" style="fill: #9bd7cd; opacity: 0.14; stroke: #9bd7cd; stroke-width: 0.35; stroke-linejoin: miter"/>
   </g>
   <g id="patch_7">
    <path d="M 396.363874 452.932961
L 364.284575 257.974005
L 407.741879 266.865004
L 437.434725 450.300459
L 396.363874 452.932961
" clip-path="url(#p3b46a37bc3)" style="fill: #dd91a3; opacity: 0.28; stroke: #dd91a3; stroke-width: 0.9; stroke-linejoin: miter"/>
   </g>
   <g id="patch_8">
    <path d="M 261.593987 234.805189
L 358.745807 229.245754
L 378.703922 267.742562
L 246.494145 275.385514
L 261.593987 234.805189
" clip-path="url(#p3b46a37bc3)" style="fill: #dd91a3; opacity: 0.28; stroke: #dd91a3; stroke-width: 0.9; stroke-linejoin: miter"/>
   </g>
   <g id="patch_9">
    <path d="M 202.670827 400.777908
L 202.670827 86.784
" style="fill: none; stroke: #cccccc; stroke-linejoin: miter; stroke-linecap: square"/>
   </g>
   <g id="patch_10">
    <path d="M 202.670827 400.777908
L 658.449173 400.777908
" style="fill: none; stroke: #cccccc; stroke-linejoin: miter; stroke-linecap: square"/>
   </g>
   <g id="text_15">
    <text style="fill: #262626; font: 8px 'DejaVu Sans'" transform="translate(288.175625 62.603)">PedestrianSuccess 02 | Fold 2 | C−R2 ΔFDE=-5.140 m | boston-seaport</text>
    <text style="fill: #262626; font: 8px 'DejaVu Sans'" transform="translate(332.916875 71.78375)">Scene ID: 1977a1c98a6c4eb79fbc2a6dc0da9b0f</text>
    <text style="fill: #262626; font: 8px 'DejaVu Sans'" transform="translate(178.98 80.784)">Actor ID: 1977a1c98a6c4eb79fbc2a6dc0da9b0f|46ae1dd2aaff47fb8baff61d9ab253a9|a3c3478b9c4c4403812b065a7609ffa4</text>
   </g>
   <g id="line2d_25">
    <path d="M 498.020347 248.889688
L 491.984583 248.382706
L 485.393759 247.852597
L 478.98802 247.713361
L 471.281937 247.415166
L 463.554596 246.332766
L 455.752634 245.956595
L 447.14401 245.315303
L 438.466721 244.77623
L 429.718526 244.102918
L 419.463561 244.08402
L 413.770798 242.100599
" clip-path="url(#p3b46a37bc3)" style="fill: none; stroke: #777777; stroke-opacity: 0.65; stroke-linecap: round"/>
   </g>
   <g id="line2d_26">
    <path d="M 501.958464 249.274811
L 500.636455 249.291731
L 499.308059 248.95767
L 498.536568 249.290904
L 498.079545 249.190172
L 497.485875 248.983914
L 496.834793 248.900353
L 496.137347 248.81744
L 496.264359 248.764426
L 494.655323 248.931103
L 494.678691 248.299565
L 493.835024 248.910252
" clip-path="url(#p3b46a37bc3)" style="fill: none; stroke: #777777; stroke-opacity: 0.65; stroke-linecap: round"/>
   </g>
   <g id="line2d_27">
    <path d="M 495.60049 248.632752
L 486.742971 247.952071
L 476.278309 246.938646
L 465.333041 247.208764
L 452.383549 246.507364
L 439.387214 244.089497
L 427.54325 243.856216
L 411.461872 242.236779
L 396.536797 241.179819
L 380.762301 240.548413
L 363.331676 241.251707
L 353.456921 237.570095
" clip-path="url(#p3b46a37bc3)" style="fill: none; stroke: #777777; stroke-opacity: 0.65; stroke-linecap: round"/>
   </g>
   <g id="line2d_28">
    <path d="M 503.430925 249.348293
L 503.634906 249.402374
L 503.883478 249.423477
L 504.779177 249.449637
L 505.18726 249.233875
L 505.275853 249.858007
L 505.952664 249.887546
L 506.340674 249.589315
L 507.100194 249.420038
L 507.32982 249.991814
L 507.663079 249.393902
L 506.977065 249.658987
" clip-path="url(#p3b46a37bc3)" style="fill: none; stroke: #777777; stroke-opacity: 0.65; stroke-linecap: round"/>
   </g>
   <g id="line2d_29">
    <path d="M 499.283253 248.908059
L 494.821066 248.584471
L 490.420377 248.231524
L 485.705699 248.156244
L 480.660519 247.93841
L 475.290625 247.280185
L 470.064987 246.91317
L 464.387718 246.593596
L 458.823609 246.199858
L 452.67568 245.961999
L 445.954669 245.662522
L 442.591456 244.53486
" clip-path="url(#p3b46a37bc3)" style="fill: none; stroke: #777777; stroke-opacity: 0.65; stroke-linecap: round"/>
   </g>
   <g id="line2d_30">
    <path d="M 500.331933 249.0344
L 497.063604 248.933188
L 494.090678 248.46828
L 491.074467 248.683106
L 488.262598 248.532391
L 484.938462 248.055368
L 481.937339 247.756034
L 478.535562 247.432039
L 475.806954 247.413597
L 471.617293 247.23961
L 468.126492 246.84097
L 466.246284 246.557203
" clip-path="url(#p3b46a37bc3)" style="fill: none; stroke: #777777; stroke-opacity: 0.65; stroke-linecap: round"/>
   </g>
   <g id="line2d_31">
    <path d="M 503.430925 249.348293
L 503.634906 249.402374
L 503.883478 249.423477
L 504.779177 249.449637
L 505.18726 249.233875
L 505.275853 249.858007
L 505.952664 249.887546
L 506.340674 249.589315
L 507.100194 249.420038
L 507.32982 249.991814
L 507.663079 249.393902
L 506.977065 249.658987
" clip-path="url(#p3b46a37bc3)" style="fill: none; stroke-dasharray: 8.14,3.52; stroke-dashoffset: 0; stroke: #176b91; stroke-width: 2.2"/>
   </g>
   <g id="line2d_32">
    <path d="M 498.020347 248.889688
L 491.984583 248.382706
L 485.393759 247.852597
L 478.98802 247.713361
L 471.281937 247.415166
L 463.554596 246.332766
L 455.752634 245.956595
L 447.14401 245.315303
L 438.466721 244.77623
L 429.718526 244.102918
L 419.463561 244.08402
L 413.770798 242.100599
" clip-path="url(#p3b46a37bc3)" style="fill: none; stroke-dasharray: 2.8,4.62; stroke-dashoffset: 0; stroke: #89339a; stroke-width: 2.8"/>
   </g>
   <g id="line2d_33">
    <path d="M 499.283253 248.908059
L 494.821066 248.584471
L 490.420377 248.231524
L 485.705699 248.156244
L 480.660519 247.93841
L 475.290625 247.280185
L 470.064987 246.91317
L 464.387718 246.593596
L 458.823609 246.199858
L 452.67568 245.961999
L 445.954669 245.662522
L 442.591456 244.53486
" clip-path="url(#p3b46a37bc3)" style="fill: none; stroke: #db6331; stroke-width: 2.1; stroke-linecap: round"/>
   </g>
   <g id="line2d_34">
    <path d="M 496.112541 248.096902
L 488.683994 246.8078
L 481.187453 245.375028
L 472.743685 243.770714
L 464.426449 242.480186
L 454.777138 241.143126
L 445.446705 240.266192
L 439.547707 239.756646
L 430.666293 239.076037
L 421.776046 238.804061
L 412.877867 239.722793
L 404.107485 241.719647
" clip-path="url(#p3b46a37bc3)" style="fill: none; stroke: #000000; stroke-width: 2.8; stroke-linecap: round"/>
   </g>
   <g id="PathCollection_1">
    <defs>
     <path id="m606278a9f6" d="M -3.354102 3.354102
L 3.354102 -3.354102
M -3.354102 -3.354102
L 3.354102 3.354102
" style="stroke: #000000; stroke-width: 1.5"/>
    </defs>
    <g clip-path="url(#p3b46a37bc3)">
     <use xlink:href="#m606278a9f6" x="503.532388" y="249.376933" style="stroke: #000000; stroke-width: 1.5"/>
    </g>
   </g>
   <g id="text_16">
    <text style="fill: #262626; font: 7px 'DejaVu Sans'; text-anchor: start" x="416.770798" y="239.100599" transform="rotate(-0 416.770798 239.100599)">k0</text>
   </g>
   <g id="text_17">
    <text style="fill: #262626; font: 7px 'DejaVu Sans'; text-anchor: start" x="496.835024" y="237.910252" transform="rotate(-0 496.835024 237.910252)">k1</text>
   </g>
   <g id="text_18">
    <text style="fill: #262626; font: 7px 'DejaVu Sans'; text-anchor: start" x="356.456921" y="218.570095" transform="rotate(-0 356.456921 218.570095)">k2</text>
   </g>
   <g id="text_19">
    <text style="fill: #262626; font: 7px 'DejaVu Sans'; text-anchor: start" x="509.977065" y="246.658987" transform="rotate(-0 509.977065 246.658987)">k3</text>
   </g>
   <g id="text_20">
    <text style="fill: #262626; font: 7px 'DejaVu Sans'; text-anchor: start" x="445.591456" y="233.53486" transform="rotate(-0 445.591456 233.53486)">k4</text>
   </g>
   <g id="text_21">
    <text style="fill: #262626; font: 7px 'DejaVu Sans'; text-anchor: start" x="469.246284" y="227.557203" transform="rotate(-0 469.246284 227.557203)">k5</text>
   </g>
  </g>
  <g id="axes_2">
   <g id="legend_1">
    <g id="line2d_35">
     <path d="M 283.416172 447.804563
L 290.416172 447.804563
L 297.416172 447.804563
" style="fill: none; stroke: #e6dba8; stroke-width: 3; stroke-linecap: round"/>
    </g>
    <g id="text_22">
     <text style="fill: #262626; font: 7px 'DejaVu Sans'; text-anchor: start" x="303.016172" y="450.254563" transform="rotate(-0 303.016172 450.254563)">drivable_area</text>
    </g>
    <g id="line2d_36">
     <path d="M 283.416172 458.273938
L 290.416172 458.273938
L 297.416172 458.273938
" style="fill: none; stroke: #dd91a3; stroke-width: 3; stroke-linecap: round"/>
    </g>
    <g id="text_23">
     <text style="fill: #262626; font: 7px 'DejaVu Sans'; text-anchor: start" x="303.016172" y="460.723938" transform="rotate(-0 303.016172 460.723938)">ped_crossing</text>
    </g>
    <g id="line2d_37">
     <path d="M 283.416172 468.743313
L 290.416172 468.743313
L 297.416172 468.743313
" style="fill: none; stroke: #9bd7cd; stroke-width: 3; stroke-linecap: round"/>
    </g>
    <g id="text_24">
     <text style="fill: #262626; font: 7px 'DejaVu Sans'; text-anchor: start" x="303.016172" y="471.193313" transform="rotate(-0 303.016172 471.193313)">walkway</text>
    </g>
    <g id="line2d_38">
     <path d="M 364.517734 447.804563
L 371.517734 447.804563
L 378.517734 447.804563
" style="fill: none; stroke: #777777; stroke-opacity: 0.65; stroke-linecap: round"/>
    </g>
    <g id="text_25">
     <text style="fill: #262626; font: 7px 'DejaVu Sans'; text-anchor: start" x="384.117734" y="450.254563" transform="rotate(-0 384.117734 450.254563)">All six frozen candidates</text>
    </g>
    <g id="line2d_39">
     <path d="M 364.517734 458.07925
L 371.517734 458.07925
L 378.517734 458.07925
" style="fill: none; stroke-dasharray: 8.14,3.52; stroke-dashoffset: 0; stroke: #176b91; stroke-width: 2.2"/>
    </g>
    <g id="text_26">
     <text style="fill: #262626; font: 7px 'DejaVu Sans'; text-anchor: start" x="384.117734" y="460.52925" transform="rotate(-0 384.117734 460.52925)">R2 Top1 (k3)</text>
    </g>
    <g id="line2d_40">
     <path d="M 364.517734 468.353938
L 371.517734 468.353938
L 378.517734 468.353938
" style="fill: none; stroke-dasharray: 2.8,4.62; stroke-dashoffset: 0; stroke: #89339a; stroke-width: 2.8"/>
    </g>
    <g id="text_27">
     <text style="fill: #262626; font: 7px 'DejaVu Sans'; text-anchor: start" x="384.117734" y="470.803938" transform="rotate(-0 384.117734 470.803938)">Oracle candidate (k0)</text>
    </g>
    <g id="line2d_41">
     <path d="M 483.483828 447.804563
L 490.483828 447.804563
L 497.483828 447.804563
" style="fill: none; stroke: #db6331; stroke-width: 2.1; stroke-linecap: round"/>
    </g>
    <g id="text_28">
     <text style="fill: #262626; font: 7px 'DejaVu Sans'; text-anchor: start" x="503.083828" y="450.254563" transform="rotate(-0 503.083828 450.254563)">C Raw Top1 (k4)</text>
    </g>
    <g id="line2d_42">
     <path d="M 483.483828 458.07925
L 490.483828 458.07925
L 497.483828 458.07925
" style="fill: none; stroke: #000000; stroke-width: 2.8; stroke-linecap: round"/>
    </g>
    <g id="text_29">
     <text style="fill: #262626; font: 7px 'DejaVu Sans'; text-anchor: start" x="503.083828" y="460.52925" transform="rotate(-0 503.083828 460.52925)">GT (offline reference)</text>
    </g>
    <g id="PathCollection_2">
     <g>
      <use xlink:href="#m606278a9f6" x="490.483828" y="468.966438" style="stroke: #000000; stroke-width: 1.5"/>
     </g>
    </g>
    <g id="text_30">
     <text style="fill: #262626; font: 7px 'DejaVu Sans'; text-anchor: start" x="503.083828" y="470.803938" transform="rotate(-0 503.083828 470.803938)">Observed t0</text>
    </g>
   </g>
  </g>
  <g id="axes_3">
   <g id="table_1">
    <g id="patch_11">
     <path d="M 7.2 526.105174
L 113.04 526.105174
L 113.04 508.629917
L 7.2 508.629917
z
" style="fill: #ffffff; stroke: #000000; stroke-linejoin: miter"/>
    </g>
    <g id="text_31">
     <text style="fill: #262626; font: 7px 'DejaVu Sans'; text-anchor: middle" x="60.12" y="519.299108" transform="rotate(-0 60.12 519.299108)">Mode</text>
    </g>
    <g id="patch_12">
     <path d="M 113.04 526.105174
L 218.88 526.105174
L 218.88 508.629917
L 113.04 508.629917
z
" style="fill: #ffffff; stroke: #000000; stroke-linejoin: miter"/>
    </g>
    <g id="text_32">
     <text style="fill: #262626; font: 7px 'DejaVu Sans'; text-anchor: middle" x="165.96" y="519.299108" transform="rotate(-0 165.96 519.299108)">FDE (m)</text>
    </g>
    <g id="patch_13">
     <path d="M 218.88 526.105174
L 324.72 526.105174
L 324.72 508.629917
L 218.88 508.629917
z
" style="fill: #ffffff; stroke: #000000; stroke-linejoin: miter"/>
    </g>
    <g id="text_33">
     <text style="fill: #262626; font: 7px 'DejaVu Sans'; text-anchor: middle" x="271.8" y="519.299108" transform="rotate(-0 271.8 519.299108)">C Raw p</text>
    </g>
    <g id="patch_14">
     <path d="M 324.72 526.105174
L 430.56 526.105174
L 430.56 508.629917
L 324.72 508.629917
z
" style="fill: #ffffff; stroke: #000000; stroke-linejoin: miter"/>
    </g>
    <g id="text_34">
     <text style="fill: #262626; font: 7px 'DejaVu Sans'; text-anchor: middle" x="377.64" y="519.299108" transform="rotate(-0 377.64 519.299108)">C Cal p</text>
    </g>
    <g id="patch_15">
     <path d="M 430.56 526.105174
L 536.4 526.105174
L 536.4 508.629917
L 430.56 508.629917
z
" style="fill: #ffffff; stroke: #000000; stroke-linejoin: miter"/>
    </g>
    <g id="text_35">
     <text style="fill: #262626; font: 7px 'DejaVu Sans'; text-anchor: middle" x="483.48" y="519.299108" transform="rotate(-0 483.48 519.299108)">Crossing dist (m)</text>
    </g>
    <g id="patch_16">
     <path d="M 536.4 526.105174
L 642.24 526.105174
L 642.24 508.629917
L 536.4 508.629917
z
" style="fill: #ffffff; stroke: #000000; stroke-linejoin: miter"/>
    </g>
    <g id="text_36">
     <text style="fill: #262626; font: 7px 'DejaVu Sans'; text-anchor: middle" x="589.32" y="519.299108" transform="rotate(-0 589.32 519.299108)">Crossing intersects</text>
    </g>
    <g id="patch_17">
     <path d="M 642.24 526.105174
L 748.08 526.105174
L 748.08 508.629917
L 642.24 508.629917
z
" style="fill: #ffffff; stroke: #000000; stroke-linejoin: miter"/>
    </g>
    <g id="text_37">
     <text style="fill: #262626; font: 7px 'DejaVu Sans'; text-anchor: middle" x="695.16" y="519.299108" transform="rotate(-0 695.16 519.299108)">Walkway inside</text>
    </g>
    <g id="patch_18">
     <path d="M 748.08 526.105174
L 853.92 526.105174
L 853.92 508.629917
L 748.08 508.629917
z
" style="fill: #ffffff; stroke: #000000; stroke-linejoin: miter"/>
    </g>
    <g id="text_38">
     <text style="fill: #262626; font: 7px 'DejaVu Sans'; text-anchor: middle" x="801" y="519.299108" transform="rotate(-0 801 519.299108)">Boundary crosses</text>
    </g>
    <g id="patch_19">
     <path d="M 7.2 543.58043
L 113.04 543.58043
L 113.04 526.105174
L 7.2 526.105174
z
" style="fill: #ffffff; stroke: #000000; stroke-linejoin: miter"/>
    </g>
    <g id="text_39">
     <text style="fill: #262626; font: 7px 'DejaVu Sans'; text-anchor: middle" x="60.12" y="536.774364" transform="rotate(-0 60.12 536.774364)">k0 O</text>
    </g>
    <g id="patch_20">
     <path d="M 113.04 543.58043
L 218.88 543.58043
L 218.88 526.105174
L 113.04 526.105174
z
" style="fill: #ffffff; stroke: #000000; stroke-linejoin: miter"/>
    </g>
    <g id="text_40">
     <text style="fill: #262626; font: 7px 'DejaVu Sans'; text-anchor: middle" x="165.96" y="536.774364" transform="rotate(-0 165.96 536.774364)">0.770</text>
    </g>
    <g id="patch_21">
     <path d="M 218.88 543.58043
L 324.72 543.58043
L 324.72 526.105174
L 218.88 526.105174
z
" style="fill: #ffffff; stroke: #000000; stroke-linejoin: miter"/>
    </g>
    <g id="text_41">
     <text style="fill: #262626; font: 7px 'DejaVu Sans'; text-anchor: middle" x="271.8" y="536.774364" transform="rotate(-0 271.8 536.774364)">0.000</text>
    </g>
    <g id="patch_22">
     <path d="M 324.72 543.58043
L 430.56 543.58043
L 430.56 526.105174
L 324.72 526.105174
z
" style="fill: #ffffff; stroke: #000000; stroke-linejoin: miter"/>
    </g>
    <g id="text_42">
     <text style="fill: #262626; font: 7px 'DejaVu Sans'; text-anchor: middle" x="377.64" y="536.774364" transform="rotate(-0 377.64 536.774364)">0.116</text>
    </g>
    <g id="patch_23">
     <path d="M 430.56 543.58043
L 536.4 543.58043
L 536.4 526.105174
L 430.56 526.105174
z
" style="fill: #ffffff; stroke: #000000; stroke-linejoin: miter"/>
    </g>
    <g id="text_43">
     <text style="fill: #262626; font: 7px 'DejaVu Sans'; text-anchor: middle" x="483.48" y="536.774364" transform="rotate(-0 483.48 536.774364)">missing</text>
    </g>
    <g id="patch_24">
     <path d="M 536.4 543.58043
L 642.24 543.58043
L 642.24 526.105174
L 536.4 526.105174
z
" style="fill: #ffffff; stroke: #000000; stroke-linejoin: miter"/>
    </g>
    <g id="text_44">
     <text style="fill: #262626; font: 7px 'DejaVu Sans'; text-anchor: middle" x="589.32" y="536.774364" transform="rotate(-0 589.32 536.774364)">missing</text>
    </g>
    <g id="patch_25">
     <path d="M 642.24 543.58043
L 748.08 543.58043
L 748.08 526.105174
L 642.24 526.105174
z
" style="fill: #ffffff; stroke: #000000; stroke-linejoin: miter"/>
    </g>
    <g id="text_45">
     <text style="fill: #262626; font: 7px 'DejaVu Sans'; text-anchor: middle" x="695.16" y="536.774364" transform="rotate(-0 695.16 536.774364)">missing</text>
    </g>
    <g id="patch_26">
     <path d="M 748.08 543.58043
L 853.92 543.58043
L 853.92 526.105174
L 748.08 526.105174
z
" style="fill: #ffffff; stroke: #000000; stroke-linejoin: miter"/>
    </g>
    <g id="text_46">
     <text style="fill: #262626; font: 7px 'DejaVu Sans'; text-anchor: middle" x="801" y="536.774364" transform="rotate(-0 801 536.774364)">0.000</text>
    </g>
    <g id="patch_27">
     <path d="M 7.2 561.055686
L 113.04 561.055686
L 113.04 543.58043
L 7.2 543.58043
z
" style="fill: #ffffff; stroke: #000000; stroke-linejoin: miter"/>
    </g>
    <g id="text_47">
     <text style="fill: #262626; font: 7px 'DejaVu Sans'; text-anchor: middle" x="60.12" y="554.24962" transform="rotate(-0 60.12 554.24962)">k1 </text>
    </g>
    <g id="patch_28">
     <path d="M 113.04 561.055686
L 218.88 561.055686
L 218.88 543.58043
L 113.04 543.58043
z
" style="fill: #ffffff; stroke: #000000; stroke-linejoin: miter"/>
    </g>
    <g id="text_48">
     <text style="fill: #262626; font: 7px 'DejaVu Sans'; text-anchor: middle" x="165.96" y="554.24962" transform="rotate(-0 165.96 554.24962)">7.164</text>
    </g>
    <g id="patch_29">
     <path d="M 218.88 561.055686
L 324.72 561.055686
L 324.72 543.58043
L 218.88 543.58043
z
" style="fill: #ffffff; stroke: #000000; stroke-linejoin: miter"/>
    </g>
    <g id="text_49">
     <text style="fill: #262626; font: 7px 'DejaVu Sans'; text-anchor: middle" x="271.8" y="554.24962" transform="rotate(-0 271.8 554.24962)">0.000</text>
    </g>
    <g id="patch_30">
     <path d="M 324.72 561.055686
L 430.56 561.055686
L 430.56 543.58043
L 324.72 543.58043
z
" style="fill: #ffffff; stroke: #000000; stroke-linejoin: miter"/>
    </g>
    <g id="text_50">
     <text style="fill: #262626; font: 7px 'DejaVu Sans'; text-anchor: middle" x="377.64" y="554.24962" transform="rotate(-0 377.64 554.24962)">0.212</text>
    </g>
    <g id="patch_31">
     <path d="M 430.56 561.055686
L 536.4 561.055686
L 536.4 543.58043
L 430.56 543.58043
z
" style="fill: #ffffff; stroke: #000000; stroke-linejoin: miter"/>
    </g>
    <g id="text_51">
     <text style="fill: #262626; font: 7px 'DejaVu Sans'; text-anchor: middle" x="483.48" y="554.24962" transform="rotate(-0 483.48 554.24962)">missing</text>
    </g>
    <g id="patch_32">
     <path d="M 536.4 561.055686
L 642.24 561.055686
L 642.24 543.58043
L 536.4 543.58043
z
" style="fill: #ffffff; stroke: #000000; stroke-linejoin: miter"/>
    </g>
    <g id="text_52">
     <text style="fill: #262626; font: 7px 'DejaVu Sans'; text-anchor: middle" x="589.32" y="554.24962" transform="rotate(-0 589.32 554.24962)">missing</text>
    </g>
    <g id="patch_33">
     <path d="M 642.24 561.055686
L 748.08 561.055686
L 748.08 543.58043
L 642.24 543.58043
z
" style="fill: #ffffff; stroke: #000000; stroke-linejoin: miter"/>
    </g>
    <g id="text_53">
     <text style="fill: #262626; font: 7px 'DejaVu Sans'; text-anchor: middle" x="695.16" y="554.24962" transform="rotate(-0 695.16 554.24962)">missing</text>
    </g>
    <g id="patch_34">
     <path d="M 748.08 561.055686
L 853.92 561.055686
L 853.92 543.58043
L 748.08 543.58043
z
" style="fill: #ffffff; stroke: #000000; stroke-linejoin: miter"/>
    </g>
    <g id="text_54">
     <text style="fill: #262626; font: 7px 'DejaVu Sans'; text-anchor: middle" x="801" y="554.24962" transform="rotate(-0 801 554.24962)">0.000</text>
    </g>
    <g id="patch_35">
     <path d="M 7.2 578.530942
L 113.04 578.530942
L 113.04 561.055686
L 7.2 561.055686
z
" style="fill: #ffffff; stroke: #000000; stroke-linejoin: miter"/>
    </g>
    <g id="text_55">
     <text style="fill: #262626; font: 7px 'DejaVu Sans'; text-anchor: middle" x="60.12" y="571.724877" transform="rotate(-0 60.12 571.724877)">k2 </text>
    </g>
    <g id="patch_36">
     <path d="M 113.04 578.530942
L 218.88 578.530942
L 218.88 561.055686
L 113.04 561.055686
z
" style="fill: #ffffff; stroke: #000000; stroke-linejoin: miter"/>
    </g>
    <g id="text_56">
     <text style="fill: #262626; font: 7px 'DejaVu Sans'; text-anchor: middle" x="165.96" y="571.724877" transform="rotate(-0 165.96 571.724877)">4.044</text>
    </g>
    <g id="patch_37">
     <path d="M 218.88 578.530942
L 324.72 578.530942
L 324.72 561.055686
L 218.88 561.055686
z
" style="fill: #ffffff; stroke: #000000; stroke-linejoin: miter"/>
    </g>
    <g id="text_57">
     <text style="fill: #262626; font: 7px 'DejaVu Sans'; text-anchor: middle" x="271.8" y="571.724877" transform="rotate(-0 271.8 571.724877)">0.000</text>
    </g>
    <g id="patch_38">
     <path d="M 324.72 578.530942
L 430.56 578.530942
L 430.56 561.055686
L 324.72 561.055686
z
" style="fill: #ffffff; stroke: #000000; stroke-linejoin: miter"/>
    </g>
    <g id="text_58">
     <text style="fill: #262626; font: 7px 'DejaVu Sans'; text-anchor: middle" x="377.64" y="571.724877" transform="rotate(-0 377.64 571.724877)">0.061</text>
    </g>
    <g id="patch_39">
     <path d="M 430.56 578.530942
L 536.4 578.530942
L 536.4 561.055686
L 430.56 561.055686
z
" style="fill: #ffffff; stroke: #000000; stroke-linejoin: miter"/>
    </g>
    <g id="text_59">
     <text style="fill: #262626; font: 7px 'DejaVu Sans'; text-anchor: middle" x="483.48" y="571.724877" transform="rotate(-0 483.48 571.724877)">0.000</text>
    </g>
    <g id="patch_40">
     <path d="M 536.4 578.530942
L 642.24 578.530942
L 642.24 561.055686
L 536.4 561.055686
z
" style="fill: #ffffff; stroke: #000000; stroke-linejoin: miter"/>
    </g>
    <g id="text_60">
     <text style="fill: #262626; font: 7px 'DejaVu Sans'; text-anchor: middle" x="589.32" y="571.724877" transform="rotate(-0 589.32 571.724877)">1.000</text>
    </g>
    <g id="patch_41">
     <path d="M 642.24 578.530942
L 748.08 578.530942
L 748.08 561.055686
L 642.24 561.055686
z
" style="fill: #ffffff; stroke: #000000; stroke-linejoin: miter"/>
    </g>
    <g id="text_61">
     <text style="fill: #262626; font: 7px 'DejaVu Sans'; text-anchor: middle" x="695.16" y="571.724877" transform="rotate(-0 695.16 571.724877)">missing</text>
    </g>
    <g id="patch_42">
     <path d="M 748.08 578.530942
L 853.92 578.530942
L 853.92 561.055686
L 748.08 561.055686
z
" style="fill: #ffffff; stroke: #000000; stroke-linejoin: miter"/>
    </g>
    <g id="text_62">
     <text style="fill: #262626; font: 7px 'DejaVu Sans'; text-anchor: middle" x="801" y="571.724877" transform="rotate(-0 801 571.724877)">1.000</text>
    </g>
    <g id="patch_43">
     <path d="M 7.2 596.006198
L 113.04 596.006198
L 113.04 578.530942
L 7.2 578.530942
z
" style="fill: #ffffff; stroke: #000000; stroke-linejoin: miter"/>
    </g>
    <g id="text_63">
     <text style="fill: #262626; font: 7px 'DejaVu Sans'; text-anchor: middle" x="60.12" y="589.200133" transform="rotate(-0 60.12 589.200133)">k3 R2</text>
    </g>
    <g id="patch_44">
     <path d="M 113.04 596.006198
L 218.88 596.006198
L 218.88 578.530942
L 113.04 578.530942
z
" style="fill: #ffffff; stroke: #000000; stroke-linejoin: miter"/>
    </g>
    <g id="text_64">
     <text style="fill: #262626; font: 7px 'DejaVu Sans'; text-anchor: middle" x="165.96" y="589.200133" transform="rotate(-0 165.96 589.200133)">8.211</text>
    </g>
    <g id="patch_45">
     <path d="M 218.88 596.006198
L 324.72 596.006198
L 324.72 578.530942
L 218.88 578.530942
z
" style="fill: #ffffff; stroke: #000000; stroke-linejoin: miter"/>
    </g>
    <g id="text_65">
     <text style="fill: #262626; font: 7px 'DejaVu Sans'; text-anchor: middle" x="271.8" y="589.200133" transform="rotate(-0 271.8 589.200133)">0.000</text>
    </g>
    <g id="patch_46">
     <path d="M 324.72 596.006198
L 430.56 596.006198
L 430.56 578.530942
L 324.72 578.530942
z
" style="fill: #ffffff; stroke: #000000; stroke-linejoin: miter"/>
    </g>
    <g id="text_66">
     <text style="fill: #262626; font: 7px 'DejaVu Sans'; text-anchor: middle" x="377.64" y="589.200133" transform="rotate(-0 377.64 589.200133)">0.120</text>
    </g>
    <g id="patch_47">
     <path d="M 430.56 596.006198
L 536.4 596.006198
L 536.4 578.530942
L 430.56 578.530942
z
" style="fill: #ffffff; stroke: #000000; stroke-linejoin: miter"/>
    </g>
    <g id="text_67">
     <text style="fill: #262626; font: 7px 'DejaVu Sans'; text-anchor: middle" x="483.48" y="589.200133" transform="rotate(-0 483.48 589.200133)">missing</text>
    </g>
    <g id="patch_48">
     <path d="M 536.4 596.006198
L 642.24 596.006198
L 642.24 578.530942
L 536.4 578.530942
z
" style="fill: #ffffff; stroke: #000000; stroke-linejoin: miter"/>
    </g>
    <g id="text_68">
     <text style="fill: #262626; font: 7px 'DejaVu Sans'; text-anchor: middle" x="589.32" y="589.200133" transform="rotate(-0 589.32 589.200133)">missing</text>
    </g>
    <g id="patch_49">
     <path d="M 642.24 596.006198
L 748.08 596.006198
L 748.08 578.530942
L 642.24 578.530942
z
" style="fill: #ffffff; stroke: #000000; stroke-linejoin: miter"/>
    </g>
    <g id="text_69">
     <text style="fill: #262626; font: 7px 'DejaVu Sans'; text-anchor: middle" x="695.16" y="589.200133" transform="rotate(-0 695.16 589.200133)">missing</text>
    </g>
    <g id="patch_50">
     <path d="M 748.08 596.006198
L 853.92 596.006198
L 853.92 578.530942
L 748.08 578.530942
z
" style="fill: #ffffff; stroke: #000000; stroke-linejoin: miter"/>
    </g>
    <g id="text_70">
     <text style="fill: #262626; font: 7px 'DejaVu Sans'; text-anchor: middle" x="801" y="589.200133" transform="rotate(-0 801 589.200133)">0.000</text>
    </g>
    <g id="patch_51">
     <path d="M 7.2 613.481455
L 113.04 613.481455
L 113.04 596.006198
L 7.2 596.006198
z
" style="fill: #ffffff; stroke: #000000; stroke-linejoin: miter"/>
    </g>
    <g id="text_71">
     <text style="fill: #262626; font: 7px 'DejaVu Sans'; text-anchor: middle" x="60.12" y="606.675389" transform="rotate(-0 60.12 606.675389)">k4 C</text>
    </g>
    <g id="patch_52">
     <path d="M 113.04 613.481455
L 218.88 613.481455
L 218.88 596.006198
L 113.04 596.006198
z
" style="fill: #ffffff; stroke: #000000; stroke-linejoin: miter"/>
    </g>
    <g id="text_72">
     <text style="fill: #262626; font: 7px 'DejaVu Sans'; text-anchor: middle" x="165.96" y="606.675389" transform="rotate(-0 165.96 606.675389)">3.071</text>
    </g>
    <g id="patch_53">
     <path d="M 218.88 613.481455
L 324.72 613.481455
L 324.72 596.006198
L 218.88 596.006198
z
" style="fill: #ffffff; stroke: #000000; stroke-linejoin: miter"/>
    </g>
    <g id="text_73">
     <text style="fill: #262626; font: 7px 'DejaVu Sans'; text-anchor: middle" x="271.8" y="606.675389" transform="rotate(-0 271.8 606.675389)">1.000</text>
    </g>
    <g id="patch_54">
     <path d="M 324.72 613.481455
L 430.56 613.481455
L 430.56 596.006198
L 324.72 596.006198
z
" style="fill: #ffffff; stroke: #000000; stroke-linejoin: miter"/>
    </g>
    <g id="text_74">
     <text style="fill: #262626; font: 7px 'DejaVu Sans'; text-anchor: middle" x="377.64" y="606.675389" transform="rotate(-0 377.64 606.675389)">0.315</text>
    </g>
    <g id="patch_55">
     <path d="M 430.56 613.481455
L 536.4 613.481455
L 536.4 596.006198
L 430.56 596.006198
z
" style="fill: #ffffff; stroke: #000000; stroke-linejoin: miter"/>
    </g>
    <g id="text_75">
     <text style="fill: #262626; font: 7px 'DejaVu Sans'; text-anchor: middle" x="483.48" y="606.675389" transform="rotate(-0 483.48 606.675389)">missing</text>
    </g>
    <g id="patch_56">
     <path d="M 536.4 613.481455
L 642.24 613.481455
L 642.24 596.006198
L 536.4 596.006198
z
" style="fill: #ffffff; stroke: #000000; stroke-linejoin: miter"/>
    </g>
    <g id="text_76">
     <text style="fill: #262626; font: 7px 'DejaVu Sans'; text-anchor: middle" x="589.32" y="606.675389" transform="rotate(-0 589.32 606.675389)">missing</text>
    </g>
    <g id="patch_57">
     <path d="M 642.24 613.481455
L 748.08 613.481455
L 748.08 596.006198
L 642.24 596.006198
z
" style="fill: #ffffff; stroke: #000000; stroke-linejoin: miter"/>
    </g>
    <g id="text_77">
     <text style="fill: #262626; font: 7px 'DejaVu Sans'; text-anchor: middle" x="695.16" y="606.675389" transform="rotate(-0 695.16 606.675389)">missing</text>
    </g>
    <g id="patch_58">
     <path d="M 748.08 613.481455
L 853.92 613.481455
L 853.92 596.006198
L 748.08 596.006198
z
" style="fill: #ffffff; stroke: #000000; stroke-linejoin: miter"/>
    </g>
    <g id="text_78">
     <text style="fill: #262626; font: 7px 'DejaVu Sans'; text-anchor: middle" x="801" y="606.675389" transform="rotate(-0 801 606.675389)">0.000</text>
    </g>
    <g id="patch_59">
     <path d="M 7.2 630.956711
L 113.04 630.956711
L 113.04 613.481455
L 7.2 613.481455
z
" style="fill: #ffffff; stroke: #000000; stroke-linejoin: miter"/>
    </g>
    <g id="text_79">
     <text style="fill: #262626; font: 7px 'DejaVu Sans'; text-anchor: middle" x="60.12" y="624.150645" transform="rotate(-0 60.12 624.150645)">k5 </text>
    </g>
    <g id="patch_60">
     <path d="M 113.04 630.956711
L 218.88 630.956711
L 218.88 613.481455
L 113.04 613.481455
z
" style="fill: #ffffff; stroke: #000000; stroke-linejoin: miter"/>
    </g>
    <g id="text_80">
     <text style="fill: #262626; font: 7px 'DejaVu Sans'; text-anchor: middle" x="165.96" y="624.150645" transform="rotate(-0 165.96 624.150645)">4.960</text>
    </g>
    <g id="patch_61">
     <path d="M 218.88 630.956711
L 324.72 630.956711
L 324.72 613.481455
L 218.88 613.481455
z
" style="fill: #ffffff; stroke: #000000; stroke-linejoin: miter"/>
    </g>
    <g id="text_81">
     <text style="fill: #262626; font: 7px 'DejaVu Sans'; text-anchor: middle" x="271.8" y="624.150645" transform="rotate(-0 271.8 624.150645)">0.000</text>
    </g>
    <g id="patch_62">
     <path d="M 324.72 630.956711
L 430.56 630.956711
L 430.56 613.481455
L 324.72 613.481455
z
" style="fill: #ffffff; stroke: #000000; stroke-linejoin: miter"/>
    </g>
    <g id="text_82">
     <text style="fill: #262626; font: 7px 'DejaVu Sans'; text-anchor: middle" x="377.64" y="624.150645" transform="rotate(-0 377.64 624.150645)">0.175</text>
    </g>
    <g id="patch_63">
     <path d="M 430.56 630.956711
L 536.4 630.956711
L 536.4 613.481455
L 430.56 613.481455
z
" style="fill: #ffffff; stroke: #000000; stroke-linejoin: miter"/>
    </g>
    <g id="text_83">
     <text style="fill: #262626; font: 7px 'DejaVu Sans'; text-anchor: middle" x="483.48" y="624.150645" transform="rotate(-0 483.48 624.150645)">missing</text>
    </g>
    <g id="patch_64">
     <path d="M 536.4 630.956711
L 642.24 630.956711
L 642.24 613.481455
L 536.4 613.481455
z
" style="fill: #ffffff; stroke: #000000; stroke-linejoin: miter"/>
    </g>
    <g id="text_84">
     <text style="fill: #262626; font: 7px 'DejaVu Sans'; text-anchor: middle" x="589.32" y="624.150645" transform="rotate(-0 589.32 624.150645)">missing</text>
    </g>
    <g id="patch_65">
     <path d="M 642.24 630.956711
L 748.08 630.956711
L 748.08 613.481455
L 642.24 613.481455
z
" style="fill: #ffffff; stroke: #000000; stroke-linejoin: miter"/>
    </g>
    <g id="text_85">
     <text style="fill: #262626; font: 7px 'DejaVu Sans'; text-anchor: middle" x="695.16" y="624.150645" transform="rotate(-0 695.16 624.150645)">missing</text>
    </g>
    <g id="patch_66">
     <path d="M 748.08 630.956711
L 853.92 630.956711
L 853.92 613.481455
L 748.08 613.481455
z
" style="fill: #ffffff; stroke: #000000; stroke-linejoin: miter"/>
    </g>
    <g id="text_86">
     <text style="fill: #262626; font: 7px 'DejaVu Sans'; text-anchor: middle" x="801" y="624.150645" transform="rotate(-0 801 624.150645)">0.000</text>
    </g>
   </g>
  </g>
  <g id="text_87">
   <text style="fill: #262626; font: 11px 'DejaVu Sans'; text-anchor: middle" x="430.56" y="15.558281" transform="rotate(-0 430.56 15.558281)">Stage12A — OOF Development Evidence; GT/oracle are offline references</text>
  </g>
 </g>
 <defs>
  <clipPath id="p3b46a37bc3">
   <rect x="202.670827" y="86.784" width="455.778347" height="313.993908"/>
  </clipPath>
 </defs>
</svg>
